<svg width="229" height="98" viewBox="0 0 229 98" fill="none" xmlns="http://www.w3.org/2000/svg">
<path d="M23.1793 96.7621C21.6259 96.7621 20.1134 95.6583 18.6417 93.4508V93.0829C18.3964 88.7497 17.6606 83.9259 16.4342 78.6115C15.2078 73.2972 13.4091 66.8791 11.0381 59.3572C9.23939 53.7158 7.72684 48.6468 6.50045 44.15V92.4697C6.50045 93.7779 6.25518 94.759 5.76462 95.4131C5.35582 95.9854 4.49735 96.2715 3.1892 96.2715C2.20809 96.2715 1.43138 95.9854 0.859063 95.4131C0.286749 94.759 0.000591154 93.9414 0.000591154 92.9603V91.9792L0.245869 55.9233C0.409388 45.2946 0.491147 33.3169 0.491147 19.9901V4.90556C0.491147 3.92444 0.695545 3.27037 1.10434 2.94333C1.51314 2.53453 2.37161 2.33013 3.67976 2.33013C5.72374 2.33013 7.6042 2.73893 9.32115 3.55652C11.0381 4.29236 12.5098 5.35523 13.7361 6.74514C16.2707 9.60671 17.9059 13.0406 18.6417 17.0468C18.9687 18.682 19.1323 20.5625 19.1323 22.6882C19.1323 23.9146 19.0096 25.2636 18.7643 26.7353C18.6008 28.2069 18.4782 29.1472 18.3964 29.556C18.2329 30.3736 17.865 31.6 17.2927 33.2351C16.7204 34.8703 16.3524 35.9332 16.1889 36.4238L14.7173 39.8576L13.4909 43.0463C13.5726 45.9896 14.0632 49.7096 14.9625 54.2064C15.9436 58.7032 17.0065 62.8729 18.1511 66.7156C18.9687 69.4136 20.4404 73.9104 22.5661 80.2058L26.1227 90.9981V91.2433C26.1227 92.6333 26 93.8188 25.7548 94.7999C25.5095 96.108 24.651 96.7621 23.1793 96.7621ZM6.25518 38.6313C7.39981 37.4866 8.78971 35.8923 10.4249 33.8483L12.2645 23.3014C12.3462 22.8926 12.3871 22.3203 12.3871 21.5844C12.3871 19.2134 11.9374 16.4745 11.0381 13.3676C10.5475 11.896 9.89346 10.6696 9.07587 9.68847C8.34004 8.6256 7.56332 8.05328 6.74573 7.97152L6.50045 20.2354C6.25518 25.7133 6.13254 29.9648 6.13254 32.9899C6.13254 35.8514 6.17342 37.7319 6.25518 38.6313ZM42.9319 96.2715C41.3784 96.2715 40.0294 96.0671 38.8848 95.6583C37.4949 95.2495 36.7999 94.1049 36.7999 92.2245V20.9712C36.7999 19.5813 36.5546 17.4965 36.0641 14.7167C35.4918 12.1821 35.2056 10.0973 35.2056 8.46208V8.09416C36.5955 5.8049 37.6175 4.33324 38.2716 3.67917C39.4162 3.67917 40.9288 3.51565 42.8092 3.18861C44.5262 2.86157 46.0387 2.69805 47.3469 2.69805C48.655 2.69805 49.9223 3.10685 51.1487 3.92444C52.3751 4.66028 52.9883 5.55963 52.9883 6.6225C52.9883 9.07528 51.1078 10.3017 47.3469 10.3017H45.6299C45.1394 10.2199 44.5671 10.179 43.913 10.179C43.1771 10.179 42.7275 10.2199 42.564 10.3017C42.564 13.0815 42.7275 16.4336 43.0545 20.3581L43.2998 23.7919L43.5451 30.5371C43.5451 32.0905 43.4224 34.4615 43.1771 37.6501L42.9319 44.5179L44.6488 44.15C46.284 43.6594 47.633 43.4142 48.6959 43.4142C49.5953 43.4142 50.4128 43.7821 51.1487 44.5179C51.8845 45.172 52.2524 45.9487 52.2524 46.8481C52.2524 47.8292 51.9254 48.7285 51.2713 49.5461C50.699 50.2819 49.9632 50.6499 49.0638 50.6499L47.5921 50.5272H45.9978C44.7715 50.5272 43.913 50.8134 43.4224 51.3857V89.2811L50.2902 88.9132C54.9505 88.9132 57.2806 89.9761 57.2806 92.1018V92.5924C56.7901 93.5735 55.8907 94.3911 54.5826 95.0451C53.2744 95.6175 52.0071 95.9854 50.7808 96.1489L46.7337 96.2715H42.9319ZM75.8384 96.5168C72.0775 96.5168 70.197 95.4948 70.197 93.4508L70.4423 78.3663L70.6875 63.2817C70.6875 57.8038 70.5649 49.5052 70.3196 38.386C70.0744 27.3485 69.9517 19.0499 69.9517 13.4903V12.7544C69.9517 10.6287 70.1561 8.66648 70.5649 6.86777C71.0555 4.66027 72.3636 3.55652 74.4894 3.55652C80.2125 3.55652 84.7501 5.39611 88.1023 9.07528C91.4544 12.7544 93.1305 17.6191 93.1305 23.6693C93.1305 27.3485 92.1494 31.1912 90.1871 35.1974C88.2249 39.2036 85.8948 42.1878 83.1967 44.15C87.9388 47.3386 91.4135 51.4675 93.621 56.5365C95.9103 61.5238 97.0549 67.0426 97.0549 73.0928C97.0549 75.9544 96.0738 79.5109 94.1116 83.7624C91.7406 88.8314 88.5111 92.4697 84.4231 94.6772C81.9703 95.9036 79.2723 96.5168 76.3289 96.5168H75.8384ZM77.0648 42.3104C79.1905 41.8199 80.9892 40.062 82.4609 37.0369C83.6873 34.7477 84.8319 31.9679 85.8948 28.6975C86.14 27.7981 86.5488 26.6535 87.1212 25.2636V20.9712C87.1212 18.5185 86.2218 16.1475 84.4231 13.8582C82.6244 11.5689 80.5804 10.4243 78.2912 10.4243C77.1465 10.4243 76.5742 11.6916 76.5742 14.2261C76.5742 19.6222 76.656 24.446 76.8195 28.6975L77.0648 42.3104ZM77.5553 90.1396C81.5615 89.5673 84.7501 87.7277 87.1212 84.6208C89.4922 81.514 90.6777 77.7939 90.6777 73.4607C90.6777 69.6998 90.3507 66.2659 89.6966 63.159C89.1243 59.9704 88.3476 57.5585 87.3664 55.9233C86.4671 54.3699 85.5677 53.0618 84.6684 51.9989C83.769 50.936 82.9923 50.2411 82.3382 49.914L81.3571 49.5461H76.9421C77.3509 58.9484 77.5553 72.4796 77.5553 90.1396ZM129.978 97.7432C124.909 97.7432 120.902 95.5357 117.959 91.1207C114.77 86.6239 112.522 81.1052 111.214 74.5645C109.742 67.6149 108.802 60.1748 108.393 52.2442C107.984 45.0494 107.78 37.2413 107.78 28.8201V18.6411C107.862 15.7795 107.903 12.7544 107.903 9.56583C107.249 8.91176 106.922 8.09416 106.922 7.11306C106.922 6.13194 107.29 5.27347 108.025 4.53764C108.761 3.72004 109.579 3.31125 110.478 3.31125C113.421 3.31125 114.893 6.2137 114.893 12.0186C114.893 15.7795 115.098 22.8926 115.506 33.3578C115.915 43.823 116.12 50.936 116.12 54.697C116.528 55.7598 116.896 57.8856 117.223 61.0742C117.632 64.2628 117.836 66.8791 117.836 68.9231C117.836 70.7218 118.123 72.9701 118.695 75.6682C119.267 78.2845 120.085 80.9417 121.148 83.6397C122.211 86.5013 123.6 88.8723 125.317 90.7528C127.034 92.5515 128.833 93.4508 130.714 93.4508C131.858 93.4508 132.798 93.0829 133.534 92.3471C134.352 91.6113 134.883 90.5484 135.129 89.1585C135.619 86.8692 135.864 84.6208 135.864 82.4133V58.4988C135.864 55.4737 135.578 51.631 135.006 46.9707C134.515 41.8199 134.27 37.9363 134.27 35.32V34.4615C134.27 33.1534 134.229 31.9679 134.147 30.905L134.025 27.3485C134.025 25.0592 133.902 21.5844 133.657 16.9242C133.33 12.7544 133.166 9.23879 133.166 6.37722C133.166 5.47787 133.616 4.70115 134.515 4.04708C135.496 3.39301 136.559 3.06597 137.704 3.06597L140.77 5.88667V7.97152C140.77 8.95264 140.606 10.1381 140.279 11.5281C139.952 13.8173 139.789 15.1255 139.789 15.4525C139.789 22.8926 140.198 33.1534 141.015 46.2349C141.751 59.9704 142.119 70.64 142.119 78.2436C142.119 82.3316 141.71 85.929 140.893 89.0358C140.402 90.9163 139.707 92.4289 138.808 93.5735C137.99 94.7181 136.845 95.6992 135.374 96.5168C133.984 97.3344 132.185 97.7432 129.978 97.7432ZM180.55 96.7621C178.997 96.7621 177.484 95.6583 176.012 93.4508V93.0829C175.767 88.7497 175.031 83.9259 173.805 78.6115C172.578 73.2972 170.78 66.8791 168.409 59.3572C166.61 53.7158 165.097 48.6468 163.871 44.15V92.4697C163.871 93.7779 163.626 94.759 163.135 95.4131C162.726 95.9854 161.868 96.2715 160.56 96.2715C159.579 96.2715 158.802 95.9854 158.23 95.4131C157.657 94.759 157.371 93.9414 157.371 92.9603V91.9792L157.616 55.9233C157.78 45.2946 157.862 33.3169 157.862 19.9901V4.90556C157.862 3.92444 158.066 3.27037 158.475 2.94333C158.884 2.53453 159.742 2.33013 161.05 2.33013C163.094 2.33013 164.975 2.73893 166.692 3.55652C168.409 4.29236 169.88 5.35523 171.107 6.74514C173.641 9.60671 175.276 13.0406 176.012 17.0468C176.339 18.682 176.503 20.5625 176.503 22.6882C176.503 23.9146 176.38 25.2636 176.135 26.7353C175.971 28.2069 175.849 29.1472 175.767 29.556C175.604 30.3736 175.236 31.6 174.663 33.2351C174.091 34.8703 173.723 35.9332 173.56 36.4238L172.088 39.8576L170.861 43.0463C170.943 45.9896 171.434 49.7096 172.333 54.2064C173.314 58.7032 174.377 62.8729 175.522 66.7156C176.339 69.4136 177.811 73.9104 179.937 80.2058L183.493 90.9981V91.2433C183.493 92.6333 183.371 93.8188 183.125 94.7999C182.88 96.108 182.022 96.7621 180.55 96.7621ZM163.626 38.6313C164.77 37.4866 166.16 35.8923 167.796 33.8483L169.635 23.3014C169.717 22.8926 169.758 22.3203 169.758 21.5844C169.758 19.2134 169.308 16.4745 168.409 13.3676C167.918 11.896 167.264 10.6696 166.446 9.68847C165.711 8.6256 164.934 8.05328 164.116 7.97152L163.871 20.2354C163.626 25.7133 163.503 29.9648 163.503 32.9899C163.503 35.8514 163.544 37.7319 163.626 38.6313ZM223.604 97.3753C221.969 97.3753 218.617 88.9541 213.547 72.1117C207.824 52.4077 202.878 34.298 198.708 17.7826V58.0082C198.708 61.4421 199.035 67.2879 199.689 75.5456C200.262 84.5391 200.548 90.344 200.548 92.9603C200.548 93.6961 200.098 94.3502 199.199 94.9225C198.299 95.4131 197.277 95.6583 196.133 95.6583C194.416 95.6583 193.557 95.0043 193.557 93.6961L193.803 90.1396C193.966 87.5233 194.048 85.8064 194.048 84.9888C194.048 80.6555 193.803 73.7877 193.312 64.3854C192.822 54.8196 192.576 49.0147 192.576 46.9707V31.2729C192.576 28.7384 192.699 24.9775 192.944 19.9901C193.271 15.6569 193.435 11.896 193.435 8.70736V7.97152C193.435 3.88356 194.334 1.83958 196.133 1.83958C197.196 1.83958 198.545 3.63828 200.18 7.23569C202.878 13.1224 206.312 23.6693 210.482 38.8765C212.853 47.7065 215.632 59.0711 218.821 72.9701C218.739 72.6431 219.393 75.4638 220.783 81.4322L220.906 82.0454C220.906 74.1148 220.988 67.0017 221.151 60.7063L221.396 39.3671V3.06597C221.723 1.02199 223.032 -3.50322e-06 225.321 -3.50322e-06C227.528 -3.50322e-06 228.632 1.5943 228.632 4.78292V5.51875C228.142 6.49986 227.896 7.68537 227.896 9.07528C227.896 14.0626 227.774 21.5844 227.528 31.6408C227.283 41.779 227.16 49.3826 227.16 54.4517V91.8565C227.16 93.1647 226.792 94.3911 226.057 95.5357C225.403 96.7621 224.585 97.3753 223.604 97.3753Z" fill="url(#paint0_radial_2556_1531)"/>
<defs>
<radialGradient id="paint0_radial_2556_1531" cx="0" cy="0" r="1" gradientUnits="userSpaceOnUse" gradientTransform="translate(115.133 -20.9643) rotate(90) scale(224.5 353.406)">
<stop offset="0.754808" stop-color="#CC0000"/>
<stop offset="0.908654" stop-color="#653716"/>
<stop offset="1" stop-color="#D0AD74"/>
</radialGradient>
</defs>
</svg>
