<svg width="214" height="104" viewBox="0 0 214 104" fill="none" xmlns="http://www.w3.org/2000/svg">
<g filter="url(#filter0_n_2556_1530)">
<path d="M5.88799 103.753C2.12706 103.753 0.246598 102.731 0.246598 100.687L0.491876 85.602L0.737154 70.5174C0.737154 65.0395 0.614515 56.741 0.369237 45.6217C0.123959 34.5842 0.00132065 26.2856 0.00132065 20.726V19.9902C0.00132065 17.8644 0.205719 15.9022 0.614515 14.1035C1.10507 11.896 2.41322 10.7922 4.53896 10.7922C10.2621 10.7922 14.7997 12.6318 18.1519 16.311C21.504 19.9902 23.1801 24.8548 23.1801 30.905C23.1801 34.5842 22.199 38.4269 20.2367 42.4331C18.2745 46.4393 15.9444 49.4235 13.2463 51.3857C17.9884 54.5743 21.4631 58.7032 23.6706 63.7723C25.9599 68.7596 27.1045 74.2783 27.1045 80.3285C27.1045 83.1901 26.1234 86.7466 24.1612 90.9981C21.7902 96.0672 18.5607 99.7055 14.4727 101.913C12.0199 103.139 9.32188 103.753 6.37854 103.753H5.88799ZM7.11438 49.5461C9.24012 49.0556 11.0388 47.2978 12.5105 44.2727C13.7369 41.9834 14.8815 39.2036 15.9444 35.9332C16.1897 35.0339 16.5985 33.8892 17.1708 32.4993V28.207C17.1708 25.7542 16.2714 23.3832 14.4727 21.0939C12.674 18.8047 10.63 17.66 8.34077 17.66C7.19614 17.66 6.62382 18.9273 6.62382 21.4618C6.62382 26.8579 6.70558 31.6817 6.8691 35.9332L7.11438 49.5461ZM7.60493 97.3753C11.6111 96.803 14.7997 94.9634 17.1708 91.8566C19.5418 88.7497 20.7273 85.0297 20.7273 80.6964C20.7273 76.9355 20.4003 73.5016 19.7462 70.3948C19.1739 67.2061 18.3972 64.7942 17.416 63.1591C16.5167 61.6056 15.6173 60.2975 14.718 59.2346C13.8186 58.1717 13.0419 57.4768 12.3879 57.1498L11.4067 56.7818H6.99174C7.40053 66.1841 7.60493 79.7153 7.60493 97.3753ZM71.678 103.998C69.307 103.998 68.1215 103.098 68.1215 101.3C68.1215 100.891 68.1215 100.032 68.1215 98.7243C68.1215 97.4162 68.2032 96.1898 68.3668 95.0452C68.6938 92.1018 68.8573 88.6271 68.8573 84.6209C68.8573 80.7782 68.6938 75.5865 68.3668 69.0457C68.2032 65.3666 68.0397 59.6843 67.8762 51.9989L67.5083 37.037L67.3856 31.8861L67.263 22.6882C67.263 21.3801 67.9988 20.6442 69.4705 20.4807C70.9422 20.399 72.1686 20.8078 73.1497 21.7071C74.1308 22.6065 74.6213 23.7511 74.6213 25.141C74.6213 27.185 74.5396 30.4145 74.3761 34.8295L74.0082 66.3477C73.9264 67.4105 73.8855 68.8413 73.8855 70.64C73.9673 72.4387 74.0082 74.1966 74.0082 75.9135V83.2718V87.6868C73.8446 92.8377 74.049 97.13 74.6213 100.564C74.7849 101.709 74.5805 102.567 74.0082 103.139C73.5176 103.712 72.7409 103.998 71.678 103.998ZM42.8579 103.998C41.7132 103.998 40.6912 103.834 39.7919 103.507C38.8925 103.18 38.4837 102.363 38.5655 101.054C38.729 99.174 38.8517 96.8439 38.9334 94.0641C39.0152 91.2842 39.0561 89.3629 39.0561 88.3C39.0561 83.6398 39.1787 78.7342 39.424 73.5834C39.5875 71.6211 39.6693 68.5143 39.6693 64.2628C39.6693 61.8918 39.6284 59.0711 39.5466 55.8007C39.4649 52.5304 39.3831 50.0776 39.3013 48.4424C39.2196 47.0525 39.1378 45.4173 39.0561 43.5368C38.9743 41.6564 38.9334 39.5715 38.9334 37.2822C38.7699 34.5024 38.6881 32.3358 38.6881 30.7824L38.5655 27.5938C38.5655 27.185 38.5655 26.3674 38.5655 25.141C38.5655 23.8328 38.7699 22.8109 39.1787 22.075C39.6693 21.3392 40.4868 20.9713 41.6315 20.9713C42.6943 20.9713 43.5937 21.4209 44.3295 22.3203C45.0654 23.1379 45.4333 24.119 45.4333 25.2636C45.4333 26.163 45.515 27.6755 45.6786 29.8013C45.8421 33.5622 45.9238 36.5464 45.9238 38.7539C45.9238 41.452 45.7194 44.1091 45.3106 46.7254C45.1471 47.216 45.0654 48.0336 45.0654 49.1782C45.0654 50.1593 45.1471 51.5492 45.3106 53.3479C45.9647 53.5932 47.3546 54.1247 49.4804 54.9423C51.6061 55.6781 53.4457 56.5774 54.9991 57.6403C56.5525 58.6214 57.7789 59.766 58.6783 61.0742C61.4581 65.571 62.848 69.4545 62.848 72.7249C62.848 77.794 62.4801 83.4354 61.7443 89.6491C61.3355 93.3282 60.15 96.0672 58.1877 97.8659C56.2255 99.6646 53.3639 101.218 49.603 102.526C48.6219 102.853 47.4364 103.139 46.0465 103.385C44.6566 103.63 43.5937 103.834 42.8579 103.998ZM45.3106 97.3753C46.2918 97.5388 47.0276 97.6206 47.5181 97.6206C49.1533 97.6206 50.5024 97.0483 51.5652 95.9036C54.4268 93.1238 55.8576 89.8126 55.8576 85.9699C56.0211 82.209 56.1029 78.816 56.1029 75.7909C56.1029 70.3948 55.6941 66.92 54.8765 65.3666C54.3042 63.5679 53.1595 62.0553 51.4426 60.8289C49.7256 59.6025 47.7634 58.7441 45.5559 58.2535C44.9836 64.0584 44.6975 70.5583 44.6975 77.7531C44.6975 83.885 44.9019 90.4258 45.3106 97.3753ZM93.2759 102.526C92.213 102.199 91.6407 101.504 91.5589 100.441V98.6017C91.3954 95.1678 91.2319 90.017 91.0684 83.1492C90.7413 77.1808 90.5369 72.6023 90.4552 69.4136C90.2099 64.4263 89.9237 56.9454 89.5967 46.9707C89.5149 45.2538 89.4332 42.8828 89.3514 39.8577C89.2697 36.8326 89.2288 34.5433 89.2288 32.9899C89.147 32.0905 89.1061 30.8233 89.1061 29.1881C89.1061 27.3076 89.1879 25.9177 89.3514 25.0184C89.6785 22.4838 91.0684 21.2983 93.5211 21.4618C95.8104 21.4618 97.0368 22.77 97.2003 25.3863V26.8579L97.0777 57.7629V72.357V79.7153C97.0777 80.8599 97.1594 82.209 97.323 83.7624C97.4865 85.2341 97.6091 86.2969 97.6909 86.951C98.0997 84.58 98.7537 82.1681 99.6531 79.7153C100.634 77.1808 101.247 75.6273 101.493 75.055C102.719 72.1117 103.618 69.6998 104.191 67.8193C106.153 61.5239 108.687 53.7976 111.794 44.6406C112.448 42.7601 113.184 40.4709 114.002 37.7728C116.209 30.8233 117.722 26.3265 118.539 24.2825C119.275 22.3203 120.379 21.0939 121.851 20.6034C122.587 20.3581 123.322 20.2354 124.058 20.2354C125.203 20.2354 126.388 20.6034 127.615 21.3392V27.2259C127.615 33.3578 127.737 39.6941 127.983 46.2349C128.064 47.6248 128.105 49.7097 128.105 52.4895V56.046C128.105 56.7818 128.064 57.7629 127.983 58.9893C127.983 60.2157 128.024 61.6465 128.105 63.2817L128.473 96.3942C128.473 97.6206 128.187 98.9696 127.615 100.441C127.369 101.095 126.961 101.627 126.388 102.036C125.816 102.363 125.203 102.526 124.549 102.526C122.26 102.526 121.115 101.463 121.115 99.3375C121.115 96.8848 121.238 94.5137 121.483 92.2245C121.646 89.1176 121.728 86.7466 121.728 85.1114C121.565 68.9231 121.36 56.8227 121.115 48.8103C121.115 47.5839 120.951 45.5808 120.624 42.801L120.256 38.386C119.521 39.2036 119.112 39.735 119.03 39.9803L117.068 45.9896C115.76 50.2411 114.738 53.3888 114.002 55.4328L103.332 85.1114L97.8135 100.196C97.1594 101.913 96.1783 102.771 94.8702 102.771C94.6249 102.771 94.0935 102.69 93.2759 102.526ZM105.662 14.1035C103.7 14.1035 101.82 13.3268 100.021 11.7734C98.3041 10.2199 97.4456 8.50298 97.4456 6.62252C97.4456 5.80493 97.6909 5.15086 98.1814 4.6603C98.672 4.16974 99.3669 3.88358 100.266 3.80183C101.329 3.72007 102.229 3.80183 102.964 4.0471C103.782 4.21062 104.518 4.70118 105.172 5.51877C105.908 6.41812 106.684 6.86779 107.502 6.86779C108.401 6.86779 109.26 6.2546 110.077 5.02821C110.404 4.4559 110.691 3.96535 110.936 3.55655C111.181 3.06599 111.386 2.65719 111.549 2.33016C112.448 0.77673 113.511 1.72542e-05 114.738 1.72542e-05C114.901 1.72542e-05 115.228 0.0817779 115.719 0.245299C116.373 0.572337 116.904 1.06289 117.313 1.71696C117.722 2.28928 117.926 2.94335 117.926 3.67919C117.926 4.16974 117.804 4.6603 117.558 5.15085C117.477 5.39613 117.395 5.64141 117.313 5.88669C117.231 6.05021 117.15 6.21372 117.068 6.37725C116.168 9.23882 114.738 11.2419 112.775 12.3865C110.895 13.5312 108.524 14.1035 105.662 14.1035ZM150.113 100.809L149.991 96.0263C149.909 94.6364 149.868 93.0829 149.868 91.366L149.991 87.1963C149.745 86.2969 149.132 77.3443 148.151 60.3384C147.17 43.3324 146.598 32.4176 146.434 27.5938C141.692 27.4303 138.667 26.9397 137.359 26.1221C136.459 25.468 136.01 24.7322 136.01 23.9146C136.01 23.2605 136.419 22.6882 137.236 22.1977C138.136 21.6253 139.035 21.3392 139.934 21.3392C142.223 21.3392 145.003 21.5027 148.274 21.8297C151.381 22.2385 154.16 22.4429 156.613 22.4429H157.594H158.575C161.11 22.4429 162.377 23.4241 162.377 25.3863C162.377 26.3674 161.968 27.185 161.151 27.8391C160.333 28.4114 159.393 28.6975 158.33 28.6975C157.594 28.6975 156.531 28.5749 155.141 28.3296L152.689 27.8391L152.566 28.4522L152.443 29.0654C152.443 36.342 153.138 47.9518 154.528 63.8949C155.836 78.8568 156.49 90.4667 156.49 98.7243C156.49 99.7055 156.041 100.564 155.141 101.3C154.324 102.036 153.384 102.404 152.321 102.404L150.113 100.809ZM178.548 102.526C177.485 102.199 176.913 101.504 176.831 100.441V98.6017C176.668 95.1678 176.504 90.017 176.341 83.1492C176.014 77.1808 175.809 72.6023 175.728 69.4136C175.482 64.4263 175.196 56.9454 174.869 46.9707C174.787 45.2538 174.706 42.8828 174.624 39.8577C174.542 36.8326 174.501 34.5433 174.501 32.9899C174.419 32.0905 174.379 30.8233 174.379 29.1881C174.379 27.3076 174.46 25.9177 174.624 25.0184C174.951 22.4838 176.341 21.2983 178.794 21.4618C181.083 21.4618 182.309 22.77 182.473 25.3863V26.8579L182.35 57.7629V72.357V79.7153C182.35 80.8599 182.432 82.209 182.595 83.7624C182.759 85.2341 182.881 86.2969 182.963 86.951C183.372 84.58 184.026 82.1681 184.925 79.7153C185.907 77.1808 186.52 75.6273 186.765 75.055C187.991 72.1117 188.891 69.6998 189.463 67.8193C191.425 61.5239 193.96 53.7976 197.067 44.6406C197.721 42.7601 198.457 40.4709 199.274 37.7728C201.482 30.8233 202.994 26.3265 203.812 24.2825C204.548 22.3203 205.651 21.0939 207.123 20.6034C207.859 20.3581 208.595 20.2354 209.331 20.2354C210.475 20.2354 211.661 20.6034 212.887 21.3392V27.2259C212.887 33.3578 213.01 39.6941 213.255 46.2349C213.337 47.6248 213.378 49.7097 213.378 52.4895V56.046C213.378 56.7818 213.337 57.7629 213.255 58.9893C213.255 60.2157 213.296 61.6465 213.378 63.2817L213.746 96.3942C213.746 97.6206 213.459 98.9696 212.887 100.441C212.642 101.095 212.233 101.627 211.661 102.036C211.088 102.363 210.475 102.526 209.821 102.526C207.532 102.526 206.387 101.463 206.387 99.3375C206.387 96.8848 206.51 94.5137 206.755 92.2245C206.919 89.1176 207 86.7466 207 85.1114C206.837 68.9231 206.633 56.8227 206.387 48.8103C206.387 47.5839 206.224 45.5808 205.897 42.801L205.529 38.386C204.793 39.2036 204.384 39.735 204.302 39.9803L202.34 45.9896C201.032 50.2411 200.01 53.3888 199.274 55.4328L188.605 85.1114L183.086 100.196C182.432 101.913 181.451 102.771 180.143 102.771C179.897 102.771 179.366 102.69 178.548 102.526Z" fill="white"/>
</g>
<defs>
<filter id="filter0_n_2556_1530" x="0" y="0" width="213.742" height="103.998" filterUnits="userSpaceOnUse" color-interpolation-filters="sRGB">
<feFlood flood-opacity="0" result="BackgroundImageFix"/>
<feBlend mode="normal" in="SourceGraphic" in2="BackgroundImageFix" result="shape"/>
<feTurbulence type="fractalNoise" baseFrequency="0.035587187856435776 0.035587187856435776" stitchTiles="stitch" numOctaves="3" result="noise" seed="6329" />
<feColorMatrix in="noise" type="luminanceToAlpha" result="alphaNoise" />
<feComponentTransfer in="alphaNoise" result="coloredNoise1">
<feFuncA type="discrete" tableValues="0 0 0 0 0 0 0 0 0 0 0 0 0 0 0 0 0 0 0 0 0 0 0 0 1 1 0 0 0 0 0 0 0 0 0 0 0 0 0 0 0 0 0 0 0 0 0 0 0 0 0 0 0 0 0 0 0 0 0 0 0 0 0 0 0 0 0 0 0 0 0 0 0 0 0 0 0 0 0 0 0 0 0 0 0 0 0 0 0 0 0 0 0 0 0 0 0 0 0 0 "/>
</feComponentTransfer>
<feComposite operator="in" in2="shape" in="coloredNoise1" result="noise1Clipped" />
<feFlood flood-color="rgba(0, 0, 0, 0.25)" result="color1Flood" />
<feComposite operator="in" in2="noise1Clipped" in="color1Flood" result="color1" />
<feMerge result="effect1_noise_2556_1530">
<feMergeNode in="shape" />
<feMergeNode in="color1" />
</feMerge>
</filter>
</defs>
</svg>
