<svg width="209" height="97" viewBox="0 0 209 97" fill="none" xmlns="http://www.w3.org/2000/svg">
<path d="M6.50063 95.4131C5.27424 95.4131 4.17049 94.8816 3.18938 93.8188C2.20827 92.7559 1.75859 91.5704 1.84035 90.2622C2.08563 86.0925 2.20827 81.841 2.20827 77.5078C2.20827 73.7469 2.12651 68.0237 1.96299 60.3383C1.88123 56.8227 1.59507 51.5492 1.10451 44.5179C1.02276 43.128 0.900117 41.1249 0.736598 38.5086C0.573079 35.8106 0.450441 33.4395 0.368681 31.3956C0.286922 30.0056 0.246042 27.9208 0.246042 25.141L0.368681 12.6318C0.368681 11.896 0.286922 10.874 0.123404 9.56583L0.000764903 6.74513C0.000764903 5.43699 0.327802 4.415 0.981876 3.67916C1.71771 2.94333 2.65794 2.57541 3.80257 2.57541C6.17359 2.57541 7.52262 3.67916 7.84965 5.88666C8.17669 8.33944 8.34021 10.179 8.34021 11.4054C8.34021 12.8771 8.21757 14.3487 7.97229 15.8204C7.5635 18.8455 7.3591 21.5844 7.3591 24.0372L7.48174 27.7164C7.80878 35.2382 7.97229 42.1469 7.97229 48.4424V63.0364C7.97229 65.5709 8.05405 69.3727 8.21757 74.4418L8.9534 74.5645L10.4251 69.7815C12.8779 61.5238 15.208 54.002 17.4155 47.216C18.5601 44.0274 19.7865 39.0809 21.0947 32.3767C21.667 29.4333 22.1984 27.0623 22.689 25.2636L28.8209 3.18861C29.3932 2.12573 30.0882 1.34902 30.9058 0.858468C31.7234 0.286156 32.541 0.0408785 33.3585 0.122637C34.3397 0.367911 35.2799 1.06286 36.1792 2.20749C37.0786 3.27036 37.4874 4.33324 37.4056 5.39611C37.3239 8.25768 37.0786 11.2419 36.6698 14.3487C35.934 24.5687 35.5252 30.9868 35.4434 33.6031C35.1164 44.5588 34.9529 52.7756 34.9529 58.2535C34.9529 60.8698 35.1573 64.9986 35.566 70.64C35.9748 76.1996 36.2201 79.8788 36.3019 81.6775L36.7924 87.8095C36.8742 89.5264 36.4654 90.8754 35.566 91.8565C34.6667 92.8376 33.4812 93.3282 32.0095 93.3282C31.1102 93.3282 30.3335 93.042 29.6794 92.4697C29.0253 91.8157 28.6574 90.9572 28.5756 89.8943V88.7906L28.6983 64.1401V59.7251C28.5348 55.4737 28.3712 48.9329 28.2077 40.1029V35.0747V26.9806C28.126 26.8988 27.9216 26.8579 27.5945 26.8579C27.104 26.9397 26.3681 28.8201 25.387 32.4993C24.4877 36.0967 23.6292 39.735 22.8116 43.4142C21.994 47.0116 21.4626 49.3008 21.2173 50.2819C20.4815 53.7976 20.0318 55.8007 19.8683 56.2913C17.579 64.0584 15.7394 70.5582 14.3495 75.7908C12.9596 80.9417 11.815 86.1743 10.9156 91.4886C10.4251 94.1049 8.95341 95.4131 6.50063 95.4131ZM54.0836 95.1678C54.0018 94.8408 53.8383 94.2684 53.593 93.4508C53.4295 92.6332 53.3886 91.9383 53.4704 91.366C53.6339 81.8819 53.8792 74.8097 54.2062 70.1495C54.288 68.4325 54.3288 65.898 54.3288 62.5458C54.3288 56.4957 54.0427 49.1782 53.4704 40.5935C52.9798 30.1283 52.7345 22.1976 52.7345 16.8015C52.7345 15.5751 53.2251 14.4714 54.2062 13.4903C55.1873 12.5092 56.3728 12.0186 57.7627 12.0186C62.423 12.0186 66.4701 12.3865 69.904 13.1224C71.5392 13.4494 72.602 14.0217 73.0926 14.8393C73.5831 15.5751 73.7467 16.8424 73.5832 18.6411C72.4385 19.3769 71.253 19.7449 70.0266 19.7449C69.6178 19.7449 69.0046 19.6631 68.187 19.4996C67.4512 19.3361 65.489 19.1725 62.3004 19.009H62.0551C60.9105 19.009 60.3381 19.6222 60.3381 20.8486C59.9294 32.7037 59.725 39.4488 59.725 41.084C59.8885 49.587 60.052 56.0051 60.2155 60.3383C60.2155 60.9107 60.2564 61.6056 60.3381 62.4232C60.4199 63.2408 60.4199 63.9357 60.3381 64.5081C60.0929 68.269 59.9702 72.2343 59.9702 76.404C59.9702 83.1901 60.0929 87.9321 60.3381 90.6301C60.2564 92.4289 59.9702 93.6552 59.4797 94.3093C58.9891 95.0451 58.0898 95.4131 56.7816 95.4131C56.4546 95.4131 55.5552 95.3313 54.0836 95.1678ZM84.6609 95.0451C83.598 90.7119 83.0666 84.7026 83.0666 77.0172L83.3119 66.1024C83.4754 62.832 83.5571 59.1937 83.5571 55.1875C83.0666 54.0429 82.8213 53.0209 82.8213 52.1215V51.7536C83.6389 50.2002 84.0477 46.6845 84.0477 41.2067L84.1703 35.5653C84.2521 33.7666 84.293 31.7635 84.293 29.556C84.293 24.7322 83.9659 20.9304 83.3119 18.1506C83.5571 17.0059 83.9659 16.0248 84.5382 15.2072C85.1106 14.3079 85.8055 13.8582 86.6231 13.8582H92.0192C94.3085 13.8582 96.3116 14.3896 98.0285 15.4525C99.7455 16.4336 101.054 17.8644 101.953 19.7449C103.588 23.097 104.406 27.0623 104.406 31.6408C104.406 34.9112 104.365 37.4866 104.283 39.3671C104.12 41.7381 103.711 43.9047 103.057 45.8669C102.811 46.9298 102.444 47.8292 101.953 48.565C101.544 49.2191 100.931 50.0367 100.113 51.0178C98.9688 52.4077 97.0883 53.7158 94.472 54.9422C93.4091 55.5145 92.0192 56.046 90.3023 56.5365V69.6589L90.5476 77.5078L90.7928 81.3096C91.1199 85.8881 91.2834 89.7717 91.2834 92.9603C91.2834 93.9414 90.8746 94.759 90.057 95.4131C89.2394 96.1489 88.2992 96.5168 87.2363 96.5168L84.6609 95.0451ZM90.4249 51.5083C95.2487 50.7725 97.6606 43.8638 97.6606 30.7824C97.6606 28.4113 97.538 26.5718 97.2927 25.2636C97.0474 24.2825 96.7204 23.5058 96.3116 22.9335C95.9028 22.2794 95.2896 21.748 94.472 21.3392C93.5726 20.8486 92.5915 20.6033 91.5287 20.6033C91.5287 20.5216 91.079 20.4807 90.1796 20.4807V27.4711C90.1796 32.2949 90.2205 36.5873 90.3023 40.3482C90.3023 44.5997 90.3432 47.3795 90.4249 48.6876V51.2631V51.5083ZM140.615 95.2904C138.734 95.2904 137.345 95.0043 136.445 94.432C135.546 93.8596 135.096 92.7968 135.096 91.2433C135.096 88.7906 134.687 84.6208 133.87 78.7342L133.379 76.1588L121.238 74.3192C120.747 76.1996 120.052 80.0014 119.153 85.7246C118.663 89.7308 117.886 92.388 116.823 93.6961C116.251 94.432 115.433 94.7999 114.37 94.7999C113.389 94.7999 112.49 94.5137 111.672 93.9414C110.855 93.2873 110.446 92.5106 110.446 91.6113L110.691 90.9981L110.814 90.5075C116.21 69.4954 120.298 48.7694 123.078 28.3296C123.078 28.0025 123.118 27.4711 123.2 26.7353C123.282 25.9177 123.364 24.7731 123.445 23.3014C123.691 20.2763 123.936 17.8644 124.181 16.0657C124.508 14.267 124.999 12.918 125.653 12.0186H129.823C130.967 12.0186 131.948 12.3048 132.766 12.8771C133.584 13.3676 133.992 14.1035 133.992 15.0846C133.992 21.2983 134.851 30.5371 136.568 42.801C138.203 55.3919 139.021 64.2219 139.021 69.291C139.021 69.7815 139.225 71.0488 139.634 73.0928C140.043 74.9732 140.247 76.1996 140.247 76.772C140.247 77.3443 140.656 79.797 141.473 84.1303C142.209 88.0547 142.577 90.5893 142.577 91.7339V91.8565C142.577 93.6552 141.923 94.7999 140.615 95.2904ZM132.521 71.7438C132.275 70.5174 132.153 69.0048 132.153 67.2061C132.153 59.8478 131.499 50.4455 130.191 38.9992L128.964 26.2447C125.449 45.4582 123.037 59.9704 121.728 69.7815C122.955 70.5991 126.552 71.2532 132.521 71.7438ZM159.971 92.2245L159.848 87.4415C159.766 86.0516 159.725 84.4982 159.725 82.7813L159.848 78.6115C159.603 77.7122 158.99 68.7595 158.009 51.7536C157.027 34.7477 156.455 23.8328 156.292 19.009C151.55 18.8455 148.524 18.355 147.216 17.5374C146.317 16.8833 145.867 16.1475 145.867 15.3299C145.867 14.6758 146.276 14.1035 147.094 13.6129C147.993 13.0406 148.892 12.7544 149.792 12.7544C152.081 12.7544 154.861 12.918 158.131 13.245C161.238 13.6538 164.018 13.8582 166.471 13.8582H167.452H168.433C170.967 13.8582 172.235 14.8393 172.235 16.8015C172.235 17.7826 171.826 18.6002 171.008 19.2543C170.191 19.8266 169.25 20.1128 168.188 20.1128C167.452 20.1128 166.389 19.9901 164.999 19.7449L162.546 19.2543L162.424 19.8675L162.301 20.4807C162.301 27.7573 162.996 39.3671 164.386 55.3101C165.694 70.2721 166.348 81.8819 166.348 90.1396C166.348 91.1207 165.898 91.9792 164.999 92.715C164.181 93.4508 163.241 93.8188 162.178 93.8188L159.971 92.2245ZM187.057 93.6961C185.422 93.6144 184.481 92.7559 184.236 91.1207L184.604 60.461V51.0178V32.8672C184.604 24.8548 184.645 18.8455 184.727 14.8393C184.727 14.3487 184.972 13.8991 185.462 13.4903C186.035 13.0815 186.73 12.8771 187.547 12.8771C188.201 12.8771 188.855 13.0815 189.509 13.4903C190.164 13.8991 190.654 14.4305 190.981 15.0846C191.717 16.3927 192.085 18.3141 192.085 20.8486C192.085 22.6473 191.799 25.468 191.226 29.3107C190.981 31.0276 190.818 32.9081 190.736 34.9521C190.654 36.9961 190.613 38.3451 190.613 38.9992C190.45 40.1438 190.245 41.9834 190 44.5179C189.837 47.0525 189.837 48.2788 190 48.1971C191.226 48.0336 192.739 48.3197 194.538 49.0556C195.928 49.5461 196.745 49.7914 196.99 49.7914C200.588 50.4455 203.327 52.6121 205.207 56.2913C207.169 59.8887 208.314 63.6087 208.641 67.4514C208.723 68.3507 208.764 69.6589 208.764 71.3758C208.764 75.4638 208.396 78.9795 207.66 81.9228C206.842 87.6459 203.409 91.5704 197.358 93.6961C196.377 94.0232 195.11 94.1867 193.557 94.1867C192.412 94.1867 191.145 94.1458 189.755 94.064C188.447 93.9005 187.547 93.7779 187.057 93.6961ZM191.104 88.7906C192.003 89.0358 192.821 89.1585 193.557 89.1585C195.192 89.1585 196.582 88.7088 197.726 87.8095C198.871 86.8283 199.607 85.5611 199.934 84.0076C200.343 82.1272 200.792 79.3065 201.283 75.5456C201.446 73.7469 201.61 72.3161 201.773 71.2532C201.855 70.7626 201.896 70.0268 201.896 69.0457C201.896 65.6118 201.242 62.4641 199.934 59.6025C198.626 56.6592 196.745 55.024 194.292 54.6969C192.575 54.3699 191.308 54.1655 190.491 54.0838L191.104 88.7906Z" fill="white"/>
</svg>
