<svg width="359" height="106" viewBox="0 0 359 106" fill="none" xmlns="http://www.w3.org/2000/svg">
<path d="M23.1795 104.611C22.1166 104.611 21.2991 104.202 20.7267 103.385C20.2362 102.649 19.9909 101.709 19.9909 100.564C19.9909 83.4762 19.6639 69.0457 19.0098 57.2724C17.0476 56.9454 15.6577 56.7818 14.8401 56.7818C11.4879 56.7818 9.07604 57.068 7.60438 57.6403C7.60438 62.2188 7.97229 69.1275 8.70813 78.3663C9.3622 88.1774 9.68924 95.1269 9.68924 99.2149C9.68924 100.032 9.44396 100.809 8.9534 101.545C8.46285 102.199 7.84965 102.526 7.11382 102.526C6.05095 102.526 5.06984 100.646 4.17049 96.8848C2.86234 91.3251 1.79947 79.6744 0.981876 61.9327C0.409561 49.9141 0.123404 36.9961 0.123404 23.1788C0.0416445 20.6442 0.000764903 17.0468 0.000764903 12.3865C0.000764903 10.9149 0.695719 10.179 2.08563 10.179C2.90322 10.179 3.72081 10.3834 4.5384 10.7922C5.43776 11.201 6.09183 11.6507 6.50063 12.1413C6.17359 14.7576 6.01007 17.8235 6.01007 21.3392C6.01007 24.7731 6.17359 28.9428 6.50063 33.8484C6.7459 39.4897 6.86854 43.7412 6.86854 46.6028V48.8103C6.78678 49.4644 6.7459 50.2411 6.7459 51.1404C6.7459 51.958 6.82766 53.0209 6.99118 54.3291C7.48174 54.3291 8.29933 54.2882 9.44396 54.2064C10.5886 54.1247 11.7332 54.002 12.8778 53.8385C15.5759 53.5932 17.579 53.4706 18.8872 53.4706C18.8872 46.3575 18.8054 39.7759 18.6419 33.7257L18.3966 13.245V9.93377C19.4595 9.93377 20.3997 10.1382 21.2173 10.547C22.0349 10.874 22.6481 11.3237 23.0569 11.896C23.7927 12.7953 24.2424 14.3488 24.4059 16.5563V19.377C24.4059 26.4083 24.8147 39.8577 25.6323 59.7252C26.3681 77.7122 26.736 91.2025 26.736 100.196C26.736 101.341 26.3681 102.363 25.6323 103.262C24.9782 104.161 24.1606 104.611 23.1795 104.611ZM66.4806 103.875C64.6002 103.875 63.2103 103.589 62.3109 103.017C61.4116 102.444 60.9619 101.382 60.9619 99.8281C60.9619 97.3753 60.5531 93.2056 59.7355 87.3189L59.2449 84.7435L47.1037 82.9039C46.6131 84.7844 45.9182 88.5862 45.0188 94.3093C44.5283 98.3155 43.7516 100.973 42.6887 102.281C42.1164 103.017 41.2988 103.385 40.2359 103.385C39.2548 103.385 38.3554 103.098 37.5379 102.526C36.7203 101.872 36.3115 101.095 36.3115 100.196L36.5567 99.5828L36.6794 99.0923C42.0755 78.0801 46.1635 57.3542 48.9433 36.9143C48.9433 36.5873 48.9841 36.0559 49.0659 35.32C49.1477 34.5024 49.2294 33.3578 49.3112 31.8861C49.5565 28.861 49.8017 26.4491 50.047 24.6504C50.3741 22.8517 50.8646 21.5027 51.5187 20.6034H55.6884C56.833 20.6034 57.8141 20.8895 58.6317 21.4618C59.4493 21.9524 59.8581 22.6882 59.8581 23.6693C59.8581 29.883 60.7166 39.1218 62.4335 51.3857C64.0687 63.9766 64.8863 72.8067 64.8863 77.8757C64.8863 78.3663 65.0907 79.6335 65.4995 81.6775C65.9083 83.558 66.1127 84.7844 66.1127 85.3567C66.1127 85.929 66.5215 88.3818 67.3391 92.715C68.0749 96.6395 68.4429 99.174 68.4429 100.319V100.441C68.4429 102.24 67.7888 103.385 66.4806 103.875ZM58.3865 80.3285C58.1412 79.1021 58.0185 77.5896 58.0185 75.7909C58.0185 68.4325 57.3645 59.0302 56.0563 47.5839L54.8299 34.8295C51.3143 54.0429 48.9024 68.5552 47.5942 78.3663C48.8206 79.1839 52.418 79.8379 58.3865 80.3285ZM95.4023 104.488C93.6036 104.488 91.6823 104.202 89.6383 103.63C87.6761 103.139 86.1635 102.567 85.1007 101.913C79.6228 98.3973 76.8839 88.7906 76.8839 73.0928V69.7816V65.9798V63.0364C76.8839 59.766 76.9247 56.8636 77.0065 54.3291C77.0883 51.7128 77.2518 48.8921 77.4971 45.867C77.7423 42.6784 78.1102 40.1029 78.6008 38.1407C79.0914 36.0967 79.909 33.8075 81.0536 31.2729C82.0347 28.9019 83.2202 27.0623 84.6101 25.7542C86.0818 24.446 87.9622 23.3423 90.2515 22.4429C92.2955 21.5436 94.83 21.0939 97.8551 21.0939C99.0815 21.0939 100.022 21.3801 100.676 21.9524C101.33 22.5247 101.657 23.2605 101.657 24.1599C101.657 24.9775 101.371 25.7133 100.798 26.3674C100.308 27.0215 99.6947 27.3894 98.9589 27.4711H93.1948C91.5596 27.4711 90.1289 28.4931 88.9025 30.5371C87.6761 32.5811 86.8176 35.2383 86.3271 38.5086C85.2642 44.5588 84.7327 49.4644 84.7327 53.2253V53.8385L84.4875 65.6118C84.324 69.1275 84.2422 73.0928 84.2422 77.5078C84.2422 80.6147 84.3648 83.1492 84.6101 85.1114C85.0189 88.0548 85.7139 90.5075 86.695 92.4698C87.6761 94.6773 89.3521 96.2716 91.7232 97.2527C92.9496 97.7432 94.2986 97.9885 95.7703 97.9885C96.6696 97.9885 97.569 97.6615 98.4683 97.0074C99.5312 97.0074 100.39 97.2527 101.044 97.7432C101.78 98.152 102.147 98.8061 102.147 99.7055C102.147 102.894 99.8991 104.488 95.4023 104.488ZM120.089 100.809L119.967 96.0263C119.885 94.6364 119.844 93.0829 119.844 91.366L119.967 87.1963C119.721 86.2969 119.108 77.3443 118.127 60.3384C117.146 43.3324 116.574 32.4176 116.41 27.5938C111.668 27.4303 108.643 26.9397 107.335 26.1221C106.435 25.468 105.986 24.7322 105.986 23.9146C105.986 23.2605 106.394 22.6882 107.212 22.1977C108.111 21.6253 109.011 21.3392 109.91 21.3392C112.199 21.3392 114.979 21.5027 118.25 21.8297C121.356 22.2385 124.136 22.4429 126.589 22.4429H127.57H128.551C131.086 22.4429 132.353 23.4241 132.353 25.3863C132.353 26.3674 131.944 27.185 131.127 27.8391C130.309 28.4114 129.369 28.6975 128.306 28.6975C127.57 28.6975 126.507 28.5749 125.117 28.3296L122.665 27.8391L122.542 28.4522L122.419 29.0654C122.419 36.342 123.114 47.9518 124.504 63.8949C125.812 78.8568 126.466 90.4667 126.466 98.7243C126.466 99.7055 126.017 100.564 125.117 101.3C124.3 102.036 123.36 102.404 122.297 102.404L120.089 100.809ZM147.298 103.63C146.235 99.2967 145.703 93.2873 145.703 85.602L145.949 74.6871C146.112 71.4167 146.194 67.7785 146.194 63.7723C145.703 62.6276 145.458 61.6056 145.458 60.7063V60.3384C146.276 58.7849 146.685 55.2693 146.685 49.7914L146.807 44.15C146.889 42.3513 146.93 40.3482 146.93 38.1407C146.93 33.3169 146.603 29.5151 145.949 26.7353C146.194 25.5907 146.603 24.6096 147.175 23.792C147.747 22.8926 148.442 22.4429 149.26 22.4429H154.656C156.945 22.4429 158.948 22.9744 160.665 24.0372C162.382 25.0184 163.69 26.4491 164.59 28.3296C166.225 31.6817 167.043 35.6471 167.043 40.2256C167.043 43.496 167.002 46.0714 166.92 47.9518C166.756 50.3229 166.348 52.4895 165.694 54.4517C165.448 55.5146 165.08 56.4139 164.59 57.1498C164.181 57.8038 163.568 58.6214 162.75 59.6025C161.606 60.9924 159.725 62.3006 157.109 63.527C156.046 64.0993 154.656 64.6307 152.939 65.1213V78.2436L153.184 86.0925L153.43 89.8943C153.757 94.4729 153.92 98.3564 153.92 101.545C153.92 102.526 153.511 103.344 152.694 103.998C151.876 104.734 150.936 105.102 149.873 105.102L147.298 103.63ZM153.062 60.0931C157.886 59.3572 160.297 52.4486 160.297 39.3671C160.297 36.9961 160.175 35.1565 159.93 33.8484C159.684 32.8672 159.357 32.0905 158.948 31.5182C158.54 30.8641 157.926 30.3327 157.109 29.9239C156.21 29.4334 155.228 29.1881 154.166 29.1881C154.166 29.1063 153.716 29.0654 152.817 29.0654V36.0559C152.817 40.8797 152.857 45.172 152.939 48.9329C152.939 53.1844 152.98 55.9642 153.062 57.2724V59.8478V60.0931ZM193.441 105.102C191.315 105.102 189.353 104.407 187.554 103.017C185.755 101.709 184.284 99.9098 183.139 97.6206C180.768 92.6333 179.296 87.1963 178.724 81.3096C177.988 75.75 177.62 70.3948 177.62 65.2439C177.62 64.2628 177.661 63.4452 177.743 62.7911V60.5836C177.743 60.1748 177.702 59.9704 177.62 59.9704V57.7629L177.743 49.1782C177.825 46.5619 178.152 42.3922 178.724 36.6691C179.133 32.7446 180.073 28.9428 181.545 25.2636C182.117 23.6285 182.853 22.4021 183.752 21.5845C184.652 20.6851 185.674 20.2354 186.818 20.2354C190.089 20.2354 193.032 20.8486 195.648 22.075C198.264 23.2196 200.472 24.8548 202.271 26.9806C203.906 29.0246 205.296 31.5591 206.44 34.5842C207.585 37.5275 208.403 40.6753 208.893 44.0274C209.384 47.4613 209.629 51.0996 209.629 54.9423V55.9234C209.629 58.4579 209.67 60.7472 209.752 62.7911L209.874 69.7816C209.874 93.3282 204.396 105.102 193.441 105.102ZM192.95 99.9507C194.422 99.9507 195.771 99.3784 196.997 98.2338C198.224 97.0074 199.164 95.3722 199.818 93.3282C201.371 89.1585 202.312 84.6617 202.639 79.8379C203.047 75.6682 203.252 72.0708 203.252 69.0457C203.252 65.3666 202.966 60.5428 202.393 54.5743C201.903 48.2789 201.657 43.5777 201.657 40.4709V38.2634C201.494 35.1565 200.431 32.4585 198.469 30.1692C196.588 27.8799 194.258 26.7353 191.478 26.7353C188.699 26.7353 186.859 28.3296 185.96 31.5182C185.142 34.0528 184.733 37.3231 184.733 41.3293C184.733 42.8828 184.774 44.1909 184.856 45.2538V48.565L184.611 54.2064C184.447 55.9234 184.365 57.8038 184.365 59.8478C184.365 64.2628 184.488 68.6369 184.733 72.9702C185.06 79.1021 185.878 85.0705 187.186 90.8754C188.494 96.9256 190.416 99.9507 192.95 99.9507ZM227.209 102.526C226.147 102.199 225.574 101.504 225.493 100.441V98.6017C225.329 95.1678 225.165 90.017 225.002 83.1492C224.675 77.1808 224.471 72.6023 224.389 69.4136C224.143 64.4263 223.857 56.9454 223.53 46.9707C223.449 45.2538 223.367 42.8828 223.285 39.8577C223.203 36.8326 223.162 34.5433 223.162 32.9899C223.081 32.0905 223.04 30.8233 223.04 29.1881C223.04 27.3076 223.121 25.9177 223.285 25.0184C223.612 22.4838 225.002 21.2983 227.455 21.4618C229.744 21.4618 230.97 22.77 231.134 25.3863V26.8579L231.011 57.7629V72.357V79.7153C231.011 80.8599 231.093 82.209 231.257 83.7624C231.42 85.2341 231.543 86.2969 231.624 86.951C232.033 84.58 232.687 82.1681 233.587 79.7153C234.568 77.1808 235.181 75.6273 235.426 75.055C236.653 72.1117 237.552 69.6998 238.124 67.8193C240.087 61.5239 242.621 53.7976 245.728 44.6406C246.382 42.7601 247.118 40.4709 247.935 37.7728C250.143 30.8233 251.655 26.3265 252.473 24.2825C253.209 22.3203 254.313 21.0939 255.784 20.6034C256.52 20.3581 257.256 20.2354 257.992 20.2354C259.136 20.2354 260.322 20.6034 261.548 21.3392V27.2259C261.548 33.3578 261.671 39.6941 261.916 46.2349C261.998 47.6248 262.039 49.7097 262.039 52.4895V56.046C262.039 56.7818 261.998 57.7629 261.916 58.9893C261.916 60.2157 261.957 61.6465 262.039 63.2817L262.407 96.3942C262.407 97.6206 262.121 98.9696 261.548 100.441C261.303 101.095 260.894 101.627 260.322 102.036C259.75 102.363 259.136 102.526 258.482 102.526C256.193 102.526 255.048 101.463 255.048 99.3375C255.048 96.8848 255.171 94.5137 255.416 92.2245C255.58 89.1176 255.662 86.7466 255.662 85.1114C255.498 68.9231 255.294 56.8227 255.048 48.8103C255.048 47.5839 254.885 45.5808 254.558 42.801L254.19 38.386C253.454 39.2036 253.045 39.735 252.964 39.9803L251.001 45.9896C249.693 50.2411 248.671 53.3888 247.935 55.4328L237.266 85.1114L231.747 100.196C231.093 101.913 230.112 102.771 228.804 102.771C228.558 102.771 228.027 102.69 227.209 102.526ZM239.596 14.1035C237.634 14.1035 235.753 13.3268 233.955 11.7734C232.238 10.2199 231.379 8.50298 231.379 6.62252C231.379 5.80493 231.624 5.15086 232.115 4.6603C232.606 4.16974 233.301 3.88358 234.2 3.80183C235.263 3.72007 236.162 3.80183 236.898 4.0471C237.716 4.21062 238.451 4.70118 239.105 5.51877C239.841 6.41812 240.618 6.86779 241.436 6.86779C242.335 6.86779 243.193 6.2546 244.011 5.02821C244.338 4.4559 244.624 3.96535 244.869 3.55655C245.115 3.06599 245.319 2.65719 245.483 2.33016C246.382 0.77673 247.445 1.72542e-05 248.671 1.72542e-05C248.835 1.72542e-05 249.162 0.0817779 249.652 0.245299C250.306 0.572337 250.838 1.06289 251.247 1.71696C251.655 2.28928 251.86 2.94335 251.86 3.67919C251.86 4.16974 251.737 4.6603 251.492 5.15085C251.41 5.39613 251.328 5.64141 251.247 5.88669C251.165 6.05021 251.083 6.21372 251.001 6.37725C250.102 9.23882 248.671 11.2419 246.709 12.3865C244.829 13.5312 242.458 14.1035 239.596 14.1035ZM282.207 103.017C281.88 102.935 281.349 102.853 280.613 102.771C279.877 102.69 279.264 102.485 278.773 102.158C277.547 101.341 277.056 99.9507 277.302 97.9885L277.424 95.2904C277.751 90.8754 277.915 87.5642 277.915 85.3567C277.915 72.5205 277.792 59.6025 277.547 46.6028C277.547 39.8985 277.343 32.7855 276.934 25.2636C276.852 23.9555 277.138 22.8517 277.792 21.9524C278.528 21.053 279.427 20.6034 280.49 20.6034C281.471 20.6034 282.453 21.053 283.434 21.9524C284.497 22.8517 284.987 23.9146 284.905 25.141C284.333 27.5938 284.047 32.4993 284.047 39.8577V49.6688C284.047 51.4675 284.129 54.3291 284.292 58.2535C284.537 57.9265 285.314 56.4139 286.622 53.7159C286.786 53.3888 287.072 52.8983 287.481 52.2442C287.89 51.5084 288.176 50.7725 288.339 50.0367C291.037 41.8608 293.245 35.5653 294.962 31.1503C295.698 28.7793 296.679 26.7762 297.905 25.141C299.131 23.4241 300.807 22.2385 302.933 21.5845C303.669 21.3392 304.65 21.4209 305.877 21.8297C307.185 22.2385 308.043 22.7291 308.452 23.3014C308.943 23.8737 309.188 24.5687 309.188 25.3863C309.188 26.2039 308.902 26.9397 308.329 27.5938C307.839 28.2478 307.185 28.6566 306.367 28.8202C304.323 29.1472 302.729 29.883 301.584 31.0277C300.44 32.1723 299.581 33.3987 299.009 34.7068C298.518 35.9332 297.905 37.8137 297.169 40.3482L292.264 52.3668C292.018 52.9391 291.65 53.9203 291.16 55.3102C290.751 56.7001 290.342 57.7629 289.934 58.4988C289.77 58.7441 289.525 58.9893 289.198 59.2346C288.871 59.4799 288.584 59.7252 288.339 59.9704C288.912 59.5617 289.647 59.6843 290.547 60.3384C291.528 60.9924 292.509 61.8918 293.49 63.0364C294.144 64.3446 294.594 65.7754 294.839 67.3288C295.166 68.8822 295.371 69.7816 295.452 70.0268C295.616 71.335 295.779 72.3161 295.943 72.9702C296.924 75.5865 297.619 77.9984 298.028 80.2059C298.436 82.3316 298.723 84.8661 298.886 87.8095C299.131 90.7528 299.949 93.3282 301.339 95.5357C301.748 95.6175 302.197 95.6992 302.688 95.781C303.26 95.8628 303.873 95.9445 304.528 96.0263C305.836 96.108 306.694 96.9256 307.103 98.4791C307.185 98.6426 307.226 98.9287 307.226 99.3375C307.226 100.237 306.817 101.095 305.999 101.913C304.773 103.139 303.219 103.753 301.339 103.753C299.949 103.753 298.6 103.385 297.292 102.649C296.065 101.913 295.166 100.932 294.594 99.7055C294.103 98.8879 293.694 97.7841 293.367 96.3942C292.795 92.8786 292.305 89.322 291.896 85.7246C291.569 80.7373 291.201 76.9764 290.792 74.4418C290.465 71.8255 289.688 69.3319 288.462 66.9609C288.135 66.3885 287.808 65.9798 287.481 65.7345C287.154 65.4074 286.704 65.2439 286.132 65.2439C285.641 65.2439 285.028 65.3666 284.292 65.6118C284.129 71.4985 284.047 77.2217 284.047 82.7813C284.047 86.2969 284.21 91.6522 284.537 98.847C284.619 99.7463 284.456 100.482 284.047 101.054C283.72 101.545 283.107 102.199 282.207 103.017ZM323.62 102.526C322.557 102.199 321.985 101.504 321.903 100.441V98.6017C321.739 95.1678 321.576 90.017 321.412 83.1492C321.085 77.1808 320.881 72.6023 320.799 69.4136C320.554 64.4263 320.268 56.9454 319.941 46.9707C319.859 45.2538 319.777 42.8828 319.695 39.8577C319.614 36.8326 319.573 34.5433 319.573 32.9899C319.491 32.0905 319.45 30.8233 319.45 29.1881C319.45 27.3076 319.532 25.9177 319.695 25.0184C320.023 22.4838 321.412 21.2983 323.865 21.4618C326.154 21.4618 327.381 22.77 327.544 25.3863V26.8579L327.422 57.7629V72.357V79.7153C327.422 80.8599 327.503 82.209 327.667 83.7624C327.831 85.2341 327.953 86.2969 328.035 86.951C328.444 84.58 329.098 82.1681 329.997 79.7153C330.978 77.1808 331.591 75.6273 331.837 75.055C333.063 72.1117 333.962 69.6998 334.535 67.8193C336.497 61.5239 339.032 53.7976 342.138 44.6406C342.792 42.7601 343.528 40.4709 344.346 37.7728C346.553 30.8233 348.066 26.3265 348.884 24.2825C349.619 22.3203 350.723 21.0939 352.195 20.6034C352.931 20.3581 353.666 20.2354 354.402 20.2354C355.547 20.2354 356.732 20.6034 357.959 21.3392V27.2259C357.959 33.3578 358.081 39.6941 358.327 46.2349C358.408 47.6248 358.449 49.7097 358.449 52.4895V56.046C358.449 56.7818 358.408 57.7629 358.327 58.9893C358.327 60.2157 358.368 61.6465 358.449 63.2817L358.817 96.3942C358.817 97.6206 358.531 98.9696 357.959 100.441C357.714 101.095 357.305 101.627 356.732 102.036C356.16 102.363 355.547 102.526 354.893 102.526C352.604 102.526 351.459 101.463 351.459 99.3375C351.459 96.8848 351.582 94.5137 351.827 92.2245C351.99 89.1176 352.072 86.7466 352.072 85.1114C351.909 68.9231 351.704 56.8227 351.459 48.8103C351.459 47.5839 351.295 45.5808 350.968 42.801L350.6 38.386C349.865 39.2036 349.456 39.735 349.374 39.9803L347.412 45.9896C346.104 50.2411 345.082 53.3888 344.346 55.4328L333.676 85.1114L328.158 100.196C327.503 101.913 326.522 102.771 325.214 102.771C324.969 102.771 324.438 102.69 323.62 102.526Z" fill="white"/>
</svg>
