<svg width="362" height="96" viewBox="0 0 362 96" fill="none" xmlns="http://www.w3.org/2000/svg">
<path d="M26.0002 93.9414C24.6921 93.9414 23.7927 93.6961 23.3022 93.2056C22.8934 92.715 22.6072 91.7748 22.4437 90.3849L21.3399 67.2061L21.4626 63.7722L21.5852 52.3668C21.5852 40.5117 21.5443 31.6 21.4626 25.6315C21.3808 23.6693 21.3399 19.2134 21.3399 12.2639L21.4626 7.35835C21.4626 6.459 21.2991 5.92756 20.972 5.76404C20.645 5.51877 19.7456 5.31437 18.274 5.15085C16.6388 4.98733 15.4533 4.90557 14.7174 4.90557C12.4282 4.90557 10.2616 5.35525 8.21757 6.2546C7.72702 7.39923 7.44086 9.77025 7.3591 13.3677C7.27734 16.9651 7.23646 21.3801 7.23646 26.6127C7.1547 27.839 7.19558 33.1943 7.3591 42.6784V52.6121C7.3591 54.1655 7.52262 56.4139 7.84965 59.3572C8.17669 62.7911 8.34021 65.4074 8.34021 67.2061C8.34021 68.3508 8.25845 69.8224 8.09493 71.6211L7.97229 75.4229L8.58549 89.4038C8.58549 90.5484 8.25845 91.4069 7.60438 91.9792C6.9503 92.5515 6.05095 92.7968 4.90632 92.715C2.61706 92.715 1.47243 91.6113 1.47243 89.4038C1.71771 80.8191 1.84035 72.1935 1.84035 63.527V57.7629C1.67683 51.3857 1.51331 46.6437 1.34979 43.5368C1.18627 41.084 1.02276 37.5684 0.859237 32.9899C0.613959 26.5309 0.327802 17.0468 0.000764903 4.53765C0.000764903 3.14774 0.286922 2.12575 0.859237 1.47168C1.51331 0.735849 2.49442 0.327053 3.80257 0.245295C12.3055 0.0817734 18.7236 1.27372e-05 23.0569 1.27372e-05C24.6103 1.27372e-05 25.8776 0.490569 26.8587 1.47168C27.9216 2.45279 28.2895 3.6383 27.9624 5.02821C27.6354 6.99043 27.4719 9.23881 27.4719 11.7733C27.4719 13.6538 27.5128 15.0846 27.5945 16.0657C27.5945 16.8015 27.5945 17.7009 27.5945 18.7638C27.6763 19.8266 27.6763 21.053 27.5945 22.4429C27.5128 24.2416 27.4719 26.49 27.4719 29.1881C27.3084 35.0747 27.104 39.2445 26.8587 41.6972C26.9404 43.5777 27.0222 46.6028 27.104 50.7725C27.2675 54.8605 27.431 57.7629 27.5945 59.4799C27.3492 61.0333 27.2266 62.6276 27.2266 64.2628C27.2266 66.1433 27.4719 69.0457 27.9624 72.9702C28.2895 75.8317 28.4939 78.0801 28.5756 79.7153L28.6983 82.6586C28.8618 85.2749 28.9435 87.1963 28.9435 88.4227L28.8209 91.1207C28.9027 93.0012 27.9624 93.9414 26.0002 93.9414ZM50.1179 94.3093C49.055 94.3093 48.0739 93.9414 47.1746 93.2056C46.357 92.4697 45.9073 91.5704 45.8256 90.5075V87.3189V84.8661C45.7438 84.1303 45.7029 83.2718 45.7029 82.2907C45.7029 80.5738 45.5803 77.9575 45.335 74.4418L45.0897 66.5929C45.0897 62.5867 45.2124 56.6183 45.4576 48.6877C45.7847 41.5746 45.9482 35.6062 45.9482 30.7824C45.9482 29.6377 45.8256 27.9208 45.5803 25.6315C45.335 23.2605 45.2124 21.5436 45.2124 20.4807C45.2124 14.6758 46.9293 11.7733 50.3632 11.7733C53.0613 11.7733 56.1681 12.3048 59.6838 13.3677C63.2812 14.4305 65.0799 15.6978 65.0799 17.1695C65.0799 17.9871 64.7119 18.7638 63.9761 19.4996C63.322 20.1537 62.5044 20.6851 61.5233 21.0939C58.0894 19.8675 54.9826 19.0499 52.2028 18.6411C52.2845 19.8675 52.3254 21.6253 52.3254 23.9146C52.3254 27.185 52.2845 30.1283 52.2028 32.7446C51.9575 36.669 51.8349 39.6124 51.8349 41.5746L52.2028 43.5368L54.165 43.4142C54.8191 43.3324 55.6367 43.2915 56.6178 43.2915C60.5422 43.2915 62.5044 44.4362 62.5044 46.7254C62.5044 47.6248 62.1365 48.4015 61.4007 49.0556C60.6649 49.6279 59.7246 49.914 58.58 49.914C57.1083 49.914 55.9637 49.8323 55.1461 49.6688H52.0801C52.2437 51.7945 52.3254 54.9014 52.3254 58.9893C52.3254 63.0773 52.2845 66.7565 52.2028 70.0268C51.9575 75.0141 51.8349 78.7342 51.8349 81.187C51.8349 85.7655 51.9166 88.0547 52.0801 88.0547L56.1272 87.9321C57.5171 87.8504 59.1932 87.8095 61.1554 87.8095C64.2623 87.8095 65.8157 88.7906 65.8157 90.7528C65.8157 91.8974 65.2843 92.7559 64.2214 93.3282C63.2403 93.9823 62.0139 94.3093 60.5422 94.3093H50.1179ZM82.0261 93.5735C80.9632 89.2403 80.4318 83.231 80.4318 75.5456L80.677 64.6307C80.8406 61.3603 80.9223 57.7221 80.9223 53.7159C80.4318 52.5712 80.1865 51.5492 80.1865 50.6499V50.282C81.0041 48.7285 81.4129 45.2129 81.4129 39.735L81.5355 34.0936C81.6173 32.2949 81.6582 30.2918 81.6582 28.0843C81.6582 23.2605 81.3311 19.4587 80.677 16.6789C80.9223 15.5343 81.3311 14.5532 81.9034 13.7356C82.4758 12.8362 83.1707 12.3865 83.9883 12.3865H89.3844C91.6737 12.3865 93.6768 12.918 95.3937 13.9809C97.1107 14.962 98.4188 16.3927 99.3182 18.2732C100.953 21.6253 101.771 25.5907 101.771 30.1692C101.771 33.4396 101.73 36.015 101.648 37.8954C101.485 40.2665 101.076 42.4331 100.422 44.3953C100.177 45.4582 99.8087 46.3575 99.3182 47.0934C98.9094 47.7474 98.2962 48.565 97.4786 49.5461C96.3339 50.936 94.4535 52.2442 91.8372 53.4706C90.7743 54.0429 89.3844 54.5743 87.6675 55.0649V68.1872L87.9127 76.0361L88.158 79.8379C88.4851 84.4165 88.6486 88.3 88.6486 91.4886C88.6486 92.4697 88.2398 93.2873 87.4222 93.9414C86.6046 94.6772 85.6644 95.0452 84.6015 95.0452L82.0261 93.5735ZM87.7901 50.0367C92.6139 49.3009 95.0258 42.3922 95.0258 29.3107C95.0258 26.9397 94.9032 25.1001 94.6579 23.792C94.4126 22.8109 94.0856 22.0341 93.6768 21.4618C93.268 20.8077 92.6548 20.2763 91.8372 19.8675C90.9378 19.377 89.9567 19.1317 88.8939 19.1317C88.8939 19.0499 88.4442 19.009 87.5448 19.009V25.9995C87.5448 30.8233 87.5857 35.1156 87.6675 38.8765C87.6675 43.128 87.7083 45.9078 87.7901 47.216V49.7914V50.0367ZM119.462 94.3093C118.399 94.3093 117.418 93.9414 116.518 93.2056C115.701 92.4697 115.251 91.5704 115.169 90.5075V87.3189V84.8661C115.087 84.1303 115.047 83.2718 115.047 82.2907C115.047 80.5738 114.924 77.9575 114.679 74.4418L114.433 66.5929C114.433 62.5867 114.556 56.6183 114.801 48.6877C115.128 41.5746 115.292 35.6062 115.292 30.7824C115.292 29.6377 115.169 27.9208 114.924 25.6315C114.679 23.2605 114.556 21.5436 114.556 20.4807C114.556 14.6758 116.273 11.7733 119.707 11.7733C122.405 11.7733 125.512 12.3048 129.027 13.3677C132.625 14.4305 134.424 15.6978 134.424 17.1695C134.424 17.9871 134.056 18.7638 133.32 19.4996C132.666 20.1537 131.848 20.6851 130.867 21.0939C127.433 19.8675 124.326 19.0499 121.546 18.6411C121.628 19.8675 121.669 21.6253 121.669 23.9146C121.669 27.185 121.628 30.1283 121.546 32.7446C121.301 36.669 121.179 39.6124 121.179 41.5746L121.546 43.5368L123.509 43.4142C124.163 43.3324 124.98 43.2915 125.961 43.2915C129.886 43.2915 131.848 44.4362 131.848 46.7254C131.848 47.6248 131.48 48.4015 130.744 49.0556C130.009 49.6279 129.068 49.914 127.924 49.914C126.452 49.914 125.307 49.8323 124.49 49.6688H121.424C121.587 51.7945 121.669 54.9014 121.669 58.9893C121.669 63.0773 121.628 66.7565 121.546 70.0268C121.301 75.0141 121.179 78.7342 121.179 81.187C121.179 85.7655 121.26 88.0547 121.424 88.0547L125.471 87.9321C126.861 87.8504 128.537 87.8095 130.499 87.8095C133.606 87.8095 135.159 88.7906 135.159 90.7528C135.159 91.8974 134.628 92.7559 133.565 93.3282C132.584 93.9823 131.358 94.3093 129.886 94.3093H119.462ZM156.153 94.432C153.618 94.432 151.574 93.8597 150.021 92.715C148.467 91.5704 147.323 89.7717 146.587 87.3189C146.342 86.5831 146.219 85.8064 146.219 84.9888C146.219 83.7624 146.505 82.7813 147.077 82.0454C147.65 81.2278 148.426 80.8599 149.408 80.9417C150.143 80.9417 150.838 81.2278 151.492 81.8002C152.146 82.3725 152.555 83.0674 152.719 83.885C152.964 84.4573 153.332 85.8881 153.823 88.1774C154.231 88.2591 154.885 88.3 155.785 88.3C159.137 88.3 161.508 86.7875 162.898 83.7624C163.634 81.9637 164.165 79.9606 164.492 77.7531C164.901 75.5456 165.064 73.5425 164.983 71.7438C165.064 67.247 164.206 62.3823 162.407 57.1497C161.671 54.9422 160.486 53.7976 158.851 53.7159C155.907 53.5523 154.477 52.4895 154.558 50.5272C154.477 49.1373 154.722 48.1562 155.294 47.5839C155.948 46.9298 156.97 46.4802 158.36 46.2349C159.178 46.0714 159.954 45.7443 160.69 45.2538C161.426 44.7632 161.958 44.15 162.285 43.4142C163.347 41.2067 164.002 39.408 164.247 38.0181C164.492 36.5464 164.574 33.6848 164.492 29.4334C164.41 27.9617 164.042 26.2447 163.388 24.2825C162.734 22.3203 161.958 20.8077 161.058 19.7449C160.077 18.1915 158.851 17.4147 157.379 17.4147C156.234 17.4147 155.376 17.7418 154.804 18.3959C154.313 18.9682 153.823 19.7858 153.332 20.8486C152.923 21.8297 152.555 22.6473 152.228 23.3014C151.492 24.3643 150.757 24.8957 150.021 24.8957C149.775 24.8957 149.408 24.814 148.917 24.6504C148.099 24.4869 147.527 24.119 147.2 23.5467C146.873 22.8926 146.709 21.9933 146.709 20.8486C146.709 18.1506 147.772 15.8204 149.898 13.8582C152.024 11.8142 154.517 10.7922 157.379 10.7922C162.203 10.7922 165.678 13.3677 167.803 18.5185C168.866 20.1537 169.684 22.1977 170.256 24.6504C170.91 27.1032 171.196 29.2698 171.115 31.1503C170.951 36.6282 170.134 41.1658 168.662 44.7632C167.354 46.9707 165.964 48.6059 164.492 49.6688C166.7 52.0398 168.335 55.1466 169.398 58.9893C170.461 62.7503 170.992 66.8382 170.992 71.2532C170.992 78.5298 169.766 84.2121 167.313 88.3C164.942 92.388 161.222 94.432 156.153 94.432ZM207.923 93.8188C206.042 93.8188 204.652 93.5326 203.753 92.9603C202.854 92.388 202.404 91.3251 202.404 89.7717C202.404 87.3189 201.995 83.1492 201.177 77.2625L200.687 74.6871L188.546 72.8475C188.055 74.728 187.36 78.5298 186.461 84.2529C185.97 88.2591 185.193 90.9163 184.131 92.2245C183.558 92.9603 182.741 93.3282 181.678 93.3282C180.697 93.3282 179.797 93.0421 178.98 92.4697C178.162 91.8157 177.753 91.039 177.753 90.1396L177.999 89.5264L178.121 89.0359C183.517 68.0237 187.605 47.2978 190.385 26.8579C190.385 26.5309 190.426 25.9995 190.508 25.2636C190.59 24.446 190.671 23.3014 190.753 21.8297C190.998 18.8046 191.244 16.3927 191.489 14.594C191.816 12.7953 192.307 11.4463 192.961 10.547H197.13C198.275 10.547 199.256 10.8331 200.074 11.4054C200.891 11.896 201.3 12.6318 201.3 13.6129C201.3 19.8266 202.159 29.0654 203.875 41.3293C205.511 53.9203 206.328 62.7503 206.328 67.8193C206.328 68.3099 206.533 69.5772 206.941 71.6211C207.35 73.5016 207.555 74.728 207.555 75.3003C207.555 75.8726 207.963 78.3254 208.781 82.6586C209.517 86.5831 209.885 89.1176 209.885 90.2622V90.3849C209.885 92.1836 209.231 93.3282 207.923 93.8188ZM199.828 70.2721C199.583 69.0457 199.46 67.5332 199.46 65.7345C199.46 58.3761 198.806 48.9738 197.498 37.5275L196.272 24.7731C192.756 43.9865 190.344 58.4988 189.036 68.3099C190.263 69.1275 193.86 69.7816 199.828 70.2721ZM244.203 92.5924C243.14 92.7559 242.24 92.5106 241.505 91.8566C240.769 91.1207 240.401 90.1396 240.401 88.9132C240.156 84.9888 240.033 81.1052 240.033 77.2625C240.033 72.0299 240.156 66.8382 240.401 61.6874C240.564 56.4548 240.646 52.6121 240.646 50.1593C239.747 44.3544 239.215 34.993 239.052 22.075C239.052 19.0499 239.011 16.5971 238.929 14.7167C234.759 14.7167 231.734 14.6349 229.854 14.4714H229.118C227.892 14.4714 227.238 15.1255 227.156 16.4336L227.033 25.2636C227.033 29.5151 227.156 32.0905 227.401 32.9899C227.565 33.971 227.646 34.6251 227.646 34.9521C227.646 35.6062 227.565 36.5873 227.401 37.8954C227.238 39.2036 227.156 40.1847 227.156 40.8388C227.156 42.0652 227.36 43.128 227.769 44.0274C228.096 44.7632 228.219 45.7852 228.137 47.0934C228.137 48.4015 228.137 49.3826 228.137 50.0367C228.219 52.5712 228.178 56.2913 228.014 61.1968C227.851 65.1213 227.769 68.0237 227.769 69.9042C227.769 72.2752 227.851 74.9733 228.014 77.9984C228.178 80.9417 228.3 83.0266 228.382 84.2529L228.627 87.6868C228.709 88.995 228.423 90.0579 227.769 90.8754C227.197 91.6113 226.338 91.9792 225.194 91.9792C224.785 91.9792 224.253 91.8974 223.599 91.7339C222.863 91.4886 222.373 91.0798 222.128 90.5075C221.882 89.9352 221.719 89.1994 221.637 88.3L221.269 77.9984L221.392 63.1591C221.228 54.329 221.146 47.7474 221.146 43.4142L221.024 33.4804C220.942 28.8202 220.738 23.8737 220.411 18.6411L220.165 13.6129V12.8771C220.165 12.0595 220.329 11.4872 220.656 11.1602C220.983 10.7514 221.596 10.4243 222.496 10.179C224.131 9.77025 225.602 9.56585 226.911 9.56585C227.646 9.56585 228.178 9.60673 228.505 9.68849C229.159 9.68849 230.14 9.77025 231.448 9.93377C233.247 10.0973 234.678 10.179 235.741 10.179C237.294 10.179 238.725 10.0155 240.033 9.68849C240.932 9.44321 242.077 9.64761 243.467 10.3017C244.857 10.874 245.633 11.7325 245.797 12.8771C245.96 14.0217 246.042 14.9211 246.042 15.5752C246.042 16.2292 246.001 16.7198 245.92 17.0468C245.593 18.0279 245.429 19.2134 245.429 20.6034C245.429 21.3392 245.47 22.1568 245.552 23.0561C245.633 23.9555 245.674 24.8957 245.674 25.8768C245.674 26.6944 245.633 27.3485 245.552 27.839C245.47 28.5749 245.429 29.7604 245.429 31.3956C245.429 34.0936 245.674 37.8954 246.165 42.801L246.533 46.1122C246.615 46.8481 246.655 47.9518 246.655 49.4235C246.655 51.1404 246.615 52.4077 246.533 53.2253C246.533 53.8794 246.492 54.697 246.41 55.6781C246.41 56.5774 246.451 57.6812 246.533 58.9893C246.451 60.8698 246.492 63.6905 246.655 67.4514L246.778 70.1495L247.514 89.4038C247.514 90.3031 247.269 91.039 246.778 91.6113C246.369 92.1018 245.511 92.4289 244.203 92.5924ZM267.85 93.9414C267.114 93.9414 266.419 93.5735 265.765 92.8377C265.193 92.1018 265.07 91.366 265.397 90.6302C265.642 89.8943 266.215 88.6679 267.114 86.951C269.649 82.7813 271.325 77.1399 272.142 70.0268C272.224 69.5363 271.897 68.9231 271.161 68.1872C270.507 67.3697 270.098 66.7565 269.935 66.3477L268.218 63.8949C266.501 61.5239 265.07 59.3572 263.925 57.395C262.863 55.351 261.841 52.653 260.859 49.3009C260.451 47.9109 260.165 46.4393 260.001 44.8859C259.837 43.2507 259.756 42.2287 259.756 41.8199L259.51 38.9992C259.429 37.6093 259.306 36.3829 259.143 35.32C258.979 34.1754 258.856 33.2352 258.775 32.4993C258.039 27.7573 257.671 23.8737 257.671 20.8486C257.671 19.704 257.712 18.8455 257.793 18.2732C257.875 17.0468 257.875 15.9431 257.793 14.962C257.793 13.9809 257.793 13.1633 257.793 12.5092C257.875 10.874 258.448 10.0564 259.51 10.0564C259.756 10.0564 260.205 10.1382 260.859 10.3017C263.885 11.201 265.397 12.918 265.397 15.4525C265.397 16.1066 265.315 17.333 265.152 19.1317L264.784 24.1599C264.784 26.4491 264.825 28.1661 264.907 29.3107C265.561 36.0967 266.296 42.801 267.114 49.4235C267.359 51.2222 267.932 52.8983 268.831 54.4517C269.812 55.9234 270.793 57.1497 271.774 58.1309C272.837 59.0302 273.45 59.4799 273.614 59.4799C274.104 58.0082 274.391 57.0271 274.472 56.5365C274.963 49.26 275.249 43.9047 275.331 40.4709C275.413 37.6093 275.453 32.8672 275.453 26.2447V11.896C275.535 11.2419 275.699 10.7922 275.944 10.547C276.271 10.2199 276.803 10.0564 277.538 10.0564C279.174 10.0564 280.523 10.6696 281.585 11.896C282.648 13.0406 283.057 14.4305 282.812 16.0657C282.567 18.0279 282.444 20.6442 282.444 23.9146C282.444 25.8768 282.485 27.2259 282.567 27.9617C282.648 28.6975 282.689 29.7195 282.689 31.0277C282.689 33.0716 282.526 35.9741 282.199 39.735C282.199 40.6344 282.117 42.0652 281.953 44.0274C281.79 46.4802 281.381 50.2411 280.727 55.3102L280.236 59.3572C279.746 64.2628 278.765 70.313 277.293 77.5078C276.803 79.7971 276.067 82.209 275.086 84.7435C274.104 87.1963 273.001 89.4855 271.774 91.6113C271.529 92.1836 270.998 92.715 270.18 93.2056C269.362 93.6961 268.586 93.9414 267.85 93.9414ZM311.577 94.432C309.779 94.432 307.857 94.1458 305.813 93.5735C303.851 93.0829 302.339 92.5106 301.276 91.8566C295.798 88.3409 293.059 78.7342 293.059 63.0364V59.7252V55.9234V52.98C293.059 49.7097 293.1 46.8072 293.182 44.2727C293.263 41.6564 293.427 38.8357 293.672 35.8106C293.917 32.622 294.285 30.0465 294.776 28.0843C295.266 26.0403 296.084 23.7511 297.229 21.2165C298.21 18.8455 299.395 17.0059 300.785 15.6978C302.257 14.3896 304.137 13.2859 306.427 12.3865C308.471 11.4872 311.005 11.0375 314.03 11.0375C315.257 11.0375 316.197 11.3237 316.851 11.896C317.505 12.4683 317.832 13.2041 317.832 14.1035C317.832 14.9211 317.546 15.6569 316.973 16.311C316.483 16.9651 315.87 17.333 315.134 17.4147H309.37C307.735 17.4147 306.304 18.4367 305.078 20.4807C303.851 22.5247 302.993 25.1819 302.502 28.4522C301.439 34.5024 300.908 39.408 300.908 43.1689V43.7821L300.663 55.5554C300.499 59.0711 300.417 63.0364 300.417 67.4514C300.417 70.5583 300.54 73.0928 300.785 75.055C301.194 77.9984 301.889 80.4511 302.87 82.4134C303.851 84.6209 305.527 86.2152 307.898 87.1963C309.125 87.6868 310.474 87.9321 311.945 87.9321C312.845 87.9321 313.744 87.6051 314.643 86.951C315.706 86.951 316.565 87.1963 317.219 87.6868C317.955 88.0956 318.323 88.7497 318.323 89.6491C318.323 92.8377 316.074 94.432 311.577 94.432ZM334.425 92.9603C334.098 92.8785 333.566 92.7968 332.83 92.715C332.094 92.6333 331.481 92.4289 330.991 92.1018C329.764 91.2842 329.274 89.8943 329.519 87.9321L329.642 85.2341C329.969 80.8191 330.132 77.5078 330.132 75.3003C330.132 62.4641 330.01 49.5461 329.764 36.5464C329.764 29.8421 329.56 22.7291 329.151 15.2072C329.069 13.8991 329.356 12.7953 330.01 11.896C330.745 10.9966 331.645 10.547 332.708 10.547C333.689 10.547 334.67 10.9966 335.651 11.896C336.714 12.7953 337.204 13.8582 337.123 15.0846C336.55 17.5374 336.264 22.4429 336.264 29.8013V39.6124C336.264 41.4111 336.346 44.2727 336.509 48.1971C336.755 47.8701 337.531 46.3575 338.84 43.6595C339.003 43.3324 339.289 42.8419 339.698 42.1878C340.107 41.452 340.393 40.7161 340.557 39.9803C343.255 31.8044 345.462 25.5089 347.179 21.0939C347.915 18.7229 348.896 16.7198 350.122 15.0846C351.349 13.3677 353.025 12.1821 355.151 11.5281C355.886 11.2828 356.868 11.3646 358.094 11.7733C359.402 12.1821 360.261 12.6727 360.669 13.245C361.16 13.8173 361.405 14.5123 361.405 15.3299C361.405 16.1475 361.119 16.8833 360.547 17.5374C360.056 18.1915 359.402 18.6002 358.584 18.7638C356.54 19.0908 354.946 19.8266 353.802 20.9713C352.657 22.1159 351.798 23.3423 351.226 24.6504C350.736 25.8768 350.122 27.7573 349.387 30.2918L344.481 42.3104C344.236 42.8828 343.868 43.8639 343.377 45.2538C342.968 46.6437 342.56 47.7065 342.151 48.4424C341.987 48.6877 341.742 48.9329 341.415 49.1782C341.088 49.4235 340.802 49.6688 340.557 49.914C341.129 49.5053 341.865 49.6279 342.764 50.282C343.745 50.936 344.726 51.8354 345.707 52.98C346.361 54.2882 346.811 55.719 347.056 57.2724C347.383 58.8258 347.588 59.7252 347.67 59.9704C347.833 61.2786 347.997 62.2597 348.16 62.9138C349.141 65.5301 349.836 67.942 350.245 70.1495C350.654 72.2752 350.94 74.8097 351.103 77.7531C351.349 80.6964 352.166 83.2718 353.556 85.4793C353.965 85.5611 354.415 85.6428 354.905 85.7246C355.478 85.8064 356.091 85.8881 356.745 85.9699C358.053 86.0516 358.912 86.8692 359.32 88.4227C359.402 88.5862 359.443 88.8723 359.443 89.2811C359.443 90.1805 359.034 91.039 358.217 91.8566C356.99 93.0829 355.437 93.6961 353.556 93.6961C352.166 93.6961 350.817 93.3282 349.509 92.5924C348.283 91.8566 347.383 90.8754 346.811 89.6491C346.321 88.8315 345.912 87.7277 345.585 86.3378C345.012 82.8222 344.522 79.2656 344.113 75.6682C343.786 70.6809 343.418 66.92 343.009 64.3854C342.682 61.7691 341.906 59.2755 340.679 56.9045C340.352 56.3321 340.025 55.9234 339.698 55.6781C339.371 55.351 338.921 55.1875 338.349 55.1875C337.858 55.1875 337.245 55.3102 336.509 55.5554C336.346 61.4421 336.264 67.1653 336.264 72.7249C336.264 76.2405 336.428 81.5958 336.755 88.7906C336.837 89.6899 336.673 90.4258 336.264 90.9981C335.937 91.4886 335.324 92.1427 334.425 92.9603Z" fill="white"/>
</svg>
