<svg width="440" height="109" viewBox="0 0 440 109" fill="none" xmlns="http://www.w3.org/2000/svg">
<path d="M26.0002 93.9414C24.6921 93.9414 23.7927 93.6961 23.3022 93.2056C22.8934 92.715 22.6072 91.7748 22.4437 90.3849L21.3399 67.2061L21.4626 63.7722L21.5852 52.3668C21.5852 40.5117 21.5443 31.6 21.4626 25.6315C21.3808 23.6693 21.3399 19.2134 21.3399 12.2639L21.4626 7.35835C21.4626 6.459 21.2991 5.92756 20.972 5.76404C20.645 5.51877 19.7456 5.31437 18.274 5.15085C16.6388 4.98733 15.4533 4.90557 14.7174 4.90557C12.4282 4.90557 10.2616 5.35525 8.21757 6.2546C7.72702 7.39923 7.44086 9.77025 7.3591 13.3677C7.27734 16.9651 7.23646 21.3801 7.23646 26.6127C7.1547 27.839 7.19558 33.1943 7.3591 42.6784V52.6121C7.3591 54.1655 7.52262 56.4139 7.84965 59.3572C8.17669 62.7911 8.34021 65.4074 8.34021 67.2061C8.34021 68.3508 8.25845 69.8224 8.09493 71.6211L7.97229 75.4229L8.58549 89.4038C8.58549 90.5484 8.25845 91.4069 7.60438 91.9792C6.9503 92.5515 6.05095 92.7968 4.90632 92.715C2.61706 92.715 1.47243 91.6113 1.47243 89.4038C1.71771 80.8191 1.84035 72.1935 1.84035 63.527V57.7629C1.67683 51.3857 1.51331 46.6437 1.34979 43.5368C1.18627 41.084 1.02276 37.5684 0.859237 32.9899C0.613959 26.5309 0.327802 17.0468 0.000764903 4.53765C0.000764903 3.14774 0.286922 2.12575 0.859237 1.47168C1.51331 0.735849 2.49442 0.327053 3.80257 0.245295C12.3055 0.0817734 18.7236 1.27372e-05 23.0569 1.27372e-05C24.6103 1.27372e-05 25.8776 0.490569 26.8587 1.47168C27.9216 2.45279 28.2895 3.6383 27.9624 5.02821C27.6354 6.99043 27.4719 9.23881 27.4719 11.7733C27.4719 13.6538 27.5128 15.0846 27.5945 16.0657C27.5945 16.8015 27.5945 17.7009 27.5945 18.7638C27.6763 19.8266 27.6763 21.053 27.5945 22.4429C27.5128 24.2416 27.4719 26.49 27.4719 29.1881C27.3084 35.0747 27.104 39.2445 26.8587 41.6972C26.9404 43.5777 27.0222 46.6028 27.104 50.7725C27.2675 54.8605 27.431 57.7629 27.5945 59.4799C27.3492 61.0333 27.2266 62.6276 27.2266 64.2628C27.2266 66.1433 27.4719 69.0457 27.9624 72.9702C28.2895 75.8317 28.4939 78.0801 28.5756 79.7153L28.6983 82.6586C28.8618 85.2749 28.9435 87.1963 28.9435 88.4227L28.8209 91.1207C28.9027 93.0012 27.9624 93.9414 26.0002 93.9414ZM47.1746 93.5735C46.1117 89.2403 45.5803 83.231 45.5803 75.5456L45.8256 64.6307C45.9891 61.3603 46.0708 57.7221 46.0708 53.7159C45.5803 52.5712 45.335 51.5492 45.335 50.6499V50.282C46.1526 48.7285 46.5614 45.2129 46.5614 39.735L46.684 34.0936C46.7658 32.2949 46.8067 30.2918 46.8067 28.0843C46.8067 23.2605 46.4796 19.4587 45.8256 16.6789C46.0708 15.5343 46.4796 14.5532 47.0519 13.7356C47.6243 12.8362 48.3192 12.3865 49.1368 12.3865H54.5329C56.8222 12.3865 58.8253 12.918 60.5422 13.9809C62.2592 14.962 63.5673 16.3927 64.4667 18.2732C66.1019 21.6253 66.9194 25.5907 66.9194 30.1692C66.9194 33.4396 66.8786 36.015 66.7968 37.8954C66.6333 40.2665 66.2245 42.4331 65.5704 44.3953C65.3251 45.4582 64.9572 46.3575 64.4667 47.0934C64.0579 47.7474 63.4447 48.565 62.6271 49.5461C61.4825 50.936 59.602 52.2442 56.9857 53.4706C55.9228 54.0429 54.5329 54.5743 52.816 55.0649V68.1872L53.0613 76.0361L53.3065 79.8379C53.6336 84.4165 53.7971 88.3 53.7971 91.4886C53.7971 92.4697 53.3883 93.2873 52.5707 93.9414C51.7531 94.6772 50.8129 95.0452 49.75 95.0452L47.1746 93.5735ZM52.9386 50.0367C57.7624 49.3009 60.1743 42.3922 60.1743 29.3107C60.1743 26.9397 60.0517 25.1001 59.8064 23.792C59.5611 22.8109 59.2341 22.0341 58.8253 21.4618C58.4165 20.8077 57.8033 20.2763 56.9857 19.8675C56.0863 19.377 55.1052 19.1317 54.0424 19.1317C54.0424 19.0499 53.5927 19.009 52.6933 19.009V25.9995C52.6933 30.8233 52.7342 35.1156 52.816 38.8765C52.816 43.128 52.8569 45.9078 52.9386 47.216V49.7914V50.0367ZM93.3175 95.0452C91.1917 95.0452 89.2295 94.3502 87.4308 92.9603C85.6321 91.6522 84.1604 89.8535 83.0158 87.5642C80.6448 82.5769 79.1731 77.1399 78.6008 71.2532C77.865 65.6936 77.4971 60.3384 77.4971 55.1875C77.4971 54.2064 77.5379 53.3888 77.6197 52.7347V50.5272C77.6197 50.1184 77.5788 49.914 77.4971 49.914V47.7065L77.6197 39.1218C77.7015 36.5055 78.0285 32.3358 78.6008 26.6127C79.0096 22.6882 79.9498 18.8864 81.4215 15.2072C81.9938 13.5721 82.7296 12.3457 83.629 11.5281C84.5284 10.6287 85.5503 10.179 86.695 10.179C89.9653 10.179 92.9087 10.7922 95.525 12.0186C98.1413 13.1633 100.349 14.7984 102.147 16.9242C103.783 18.9682 105.173 21.5027 106.317 24.5278C107.462 27.4711 108.279 30.6189 108.77 33.971C109.261 37.4049 109.506 41.0432 109.506 44.8859V45.867C109.506 48.4015 109.547 50.6908 109.628 52.7347L109.751 59.7252C109.751 83.2718 104.273 95.0452 93.3175 95.0452ZM92.8269 89.8943C94.2986 89.8943 95.6476 89.322 96.874 88.1774C98.1004 86.951 99.0406 85.3158 99.6947 83.2718C101.248 79.1021 102.188 74.6053 102.515 69.7816C102.924 65.6118 103.129 62.0144 103.129 58.9893C103.129 55.3102 102.842 50.4864 102.27 44.5179C101.78 38.2225 101.534 33.5213 101.534 30.4145V28.207C101.371 25.1001 100.308 22.4021 98.3457 20.1128C96.4652 17.8235 94.1351 16.6789 91.3552 16.6789C88.5754 16.6789 86.7359 18.2732 85.8365 21.4618C85.0189 23.9964 84.6101 27.2667 84.6101 31.2729C84.6101 32.8264 84.651 34.1345 84.7327 35.1974V38.5086L84.4875 44.15C84.324 45.867 84.2422 47.7474 84.2422 49.7914C84.2422 54.2064 84.3648 58.5805 84.6101 62.9138C84.9371 69.0457 85.7547 75.0141 87.0629 80.8191C88.371 86.8692 90.2924 89.8943 92.8269 89.8943ZM165.929 107.8C165.275 107.963 164.785 108.045 164.458 108.045C163.477 108.045 162.782 107.432 162.373 106.205C162.046 105.224 161.882 103.998 161.882 102.526L162.005 94.0641C162.005 93.5735 161.964 93.1238 161.882 92.715C161.8 92.3062 161.719 91.8974 161.637 91.4886H147.533C148.351 91.4886 146.389 91.8974 141.647 92.715C136.987 93.4509 133.348 93.9414 130.732 94.1867L125.213 94.6772L119.081 95.2904C119.081 96.0263 119.081 96.9256 119.081 97.9885C119.163 99.0514 119.163 100.319 119.081 101.79V102.404C119.081 103.712 118.754 104.693 118.1 105.347C117.446 106.001 116.833 106.328 116.261 106.328C115.933 106.328 115.443 106.164 114.789 105.837C113.317 104.775 112.5 103.303 112.336 101.422L111.968 92.4697C111.805 89.2811 113.113 87.6868 115.893 87.6868C117.446 87.6051 118.672 87.1963 119.572 86.4604C120.471 85.7246 121.534 84.58 122.76 83.0266C123.987 81.3914 124.927 79.5927 125.581 77.6304C126.317 75.5865 127.012 73.1337 127.666 70.2721C128.402 67.1653 128.933 64.1402 129.26 61.1968C129.587 58.2535 129.996 54.0429 130.487 48.565C131.222 39.9803 131.59 31.3547 131.59 22.6882L131.468 15.8204C131.468 14.267 131.917 12.9997 132.817 12.0186C133.716 10.9558 134.943 10.4243 136.496 10.4243C136.987 10.4243 137.354 10.4652 137.6 10.547C141.361 11.201 144.427 11.6098 146.798 11.7733H147.411C148.474 11.7733 149.087 11.569 149.25 11.1602C149.986 10.179 150.886 9.68849 151.948 9.68849C152.684 9.68849 153.338 9.852 153.911 10.179C155.219 10.6696 156.077 11.896 156.486 13.8582L155.873 34.8295C155.873 46.194 155.914 54.697 155.996 60.3384C155.996 63.2817 156.077 67.7784 156.241 73.8286L156.363 80.5738C156.363 81.2278 156.404 81.841 156.486 82.4134C156.568 82.9857 156.65 83.558 156.731 84.1303C158.367 84.2938 159.593 84.3756 160.411 84.3756C161.065 84.3756 161.555 84.3347 161.882 84.2529C163.681 84.0077 165.275 84.4573 166.665 85.602C168.137 86.6648 168.873 88.0547 168.873 89.7717C168.873 91.9792 168.709 95.2904 168.382 99.7054C168.382 100.85 168.3 102.485 168.137 104.611C167.973 106.328 167.237 107.391 165.929 107.8ZM130.609 88.3C135.188 87.8912 138.785 87.5233 141.402 87.1963C144.1 86.7875 146.757 86.1743 149.373 85.3567C150.191 75.4638 150.599 64.876 150.599 53.5932C150.599 43.128 150.191 31.6409 149.373 19.1317C147.247 19.0499 143.282 18.8455 137.477 18.5185L137.354 24.2825C136.7 36.8734 136.251 46.2758 136.005 52.4895C135.678 61.81 134.084 70.9671 131.222 79.9606C131.059 80.4511 130.691 81.6775 130.119 83.6397C129.628 85.5202 128.851 87.1554 127.789 88.5453L130.609 88.3ZM189.488 95.0452C187.363 95.0452 185.4 94.3502 183.602 92.9603C181.803 91.6522 180.331 89.8535 179.187 87.5642C176.816 82.5769 175.344 77.1399 174.772 71.2532C174.036 65.6936 173.668 60.3384 173.668 55.1875C173.668 54.2064 173.709 53.3888 173.791 52.7347V50.5272C173.791 50.1184 173.75 49.914 173.668 49.914V47.7065L173.791 39.1218C173.872 36.5055 174.199 32.3358 174.772 26.6127C175.181 22.6882 176.121 18.8864 177.592 15.2072C178.165 13.5721 178.901 12.3457 179.8 11.5281C180.699 10.6287 181.721 10.179 182.866 10.179C186.136 10.179 189.08 10.7922 191.696 12.0186C194.312 13.1633 196.52 14.7984 198.318 16.9242C199.954 18.9682 201.344 21.5027 202.488 24.5278C203.633 27.4711 204.45 30.6189 204.941 33.971C205.431 37.4049 205.677 41.0432 205.677 44.8859V45.867C205.677 48.4015 205.718 50.6908 205.799 52.7347L205.922 59.7252C205.922 83.2718 200.444 95.0452 189.488 95.0452ZM188.998 89.8943C190.47 89.8943 191.819 89.322 193.045 88.1774C194.271 86.951 195.212 85.3158 195.866 83.2718C197.419 79.1021 198.359 74.6053 198.686 69.7816C199.095 65.6118 199.3 62.0144 199.3 58.9893C199.3 55.3102 199.013 50.4864 198.441 44.5179C197.951 38.2225 197.705 33.5213 197.705 30.4145V28.207C197.542 25.1001 196.479 22.4021 194.517 20.1128C192.636 17.8235 190.306 16.6789 187.526 16.6789C184.746 16.6789 182.907 18.2732 182.007 21.4618C181.19 23.9964 180.781 27.2667 180.781 31.2729C180.781 32.8264 180.822 34.1345 180.904 35.1974V38.5086L180.658 44.15C180.495 45.867 180.413 47.7474 180.413 49.7914C180.413 54.2064 180.536 58.5805 180.781 62.9138C181.108 69.0457 181.926 75.0141 183.234 80.8191C184.542 86.8692 186.463 89.8943 188.998 89.8943ZM213.564 95.4131C212.91 95.4131 212.338 95.2087 211.847 94.7999C211.356 94.3911 210.989 93.8597 210.743 93.2056C210.661 93.0421 210.621 92.7968 210.621 92.4697C210.621 91.4069 211.193 90.5484 212.338 89.8943C214.627 88.9132 216.344 87.4416 217.488 85.4793C218.715 83.4353 219.573 81.0643 220.064 78.3663C221.535 70.3539 222.271 61.6465 222.271 52.2442C222.271 48.7285 222.23 46.0714 222.149 44.2727C221.576 30.4553 221.086 20.726 220.677 15.0846V14.594C220.677 13.8582 220.841 13.2859 221.168 12.8771C221.495 12.4683 222.067 12.1821 222.885 12.0186C228.117 11.0375 232.287 10.547 235.394 10.547C237.029 10.547 238.255 10.5878 239.073 10.6696C240.953 10.7514 242.384 11.3237 243.365 12.3865C244.346 13.4494 244.837 14.9211 244.837 16.8015L244.96 23.3014C245.123 29.0246 245.205 33.3169 245.205 36.1785L245.082 42.0652C245.082 50.7316 245.409 61.6874 246.063 74.9324C246.39 80.9008 246.676 85.5202 246.922 88.7906C247.003 90.2622 246.758 91.3251 246.186 91.9792C245.695 92.6333 244.837 93.0421 243.61 93.2056C240.912 93.3691 239.482 92.1018 239.318 89.4038C239.563 87.0328 239.686 84.6617 239.686 82.2907C239.686 79.9197 239.645 77.9575 239.563 76.4041L239.441 62.4232C239.441 55.6372 239.318 48.6877 239.073 41.5746C238.909 35.6879 238.664 30.1283 238.337 24.8957C238.01 19.6631 237.683 16.4745 237.356 15.3299C236.865 15.4116 235.843 15.616 234.29 15.9431C232.737 16.2701 230.611 16.5563 227.913 16.8015C227.667 20.5625 227.545 23.2605 227.545 24.8957C227.545 26.7762 227.667 28.4114 227.913 29.8013C228.076 32.0088 228.24 35.2383 228.403 39.4897V42.1878C228.403 55.4328 228.281 64.3854 228.035 69.0457C227.872 70.3539 227.79 71.3759 227.79 72.1117C227.463 75.5456 227.136 78.1619 226.809 79.9606C225.991 84.2938 223.498 88.7088 219.328 93.2056C218.183 94.5137 216.344 95.2496 213.809 95.4131H213.564ZM265.269 94.5546C261.917 94.5546 259.709 92.9194 258.646 89.6491C258.237 88.5862 258.033 87.3189 258.033 85.8472C258.033 84.7026 258.156 83.3945 258.401 81.9228C258.646 80.4511 258.81 79.47 258.891 78.9795C258.973 78.3254 259.259 77.794 259.75 77.3852C260.322 76.9764 260.976 76.7311 261.712 76.6493C262.448 76.6493 263.143 76.8946 263.797 77.3852C264.451 77.8757 264.901 78.448 265.146 79.1021C265.31 79.9197 265.391 82.0454 265.391 85.4793C265.8 85.7246 266.209 85.8064 266.618 85.7246C266.863 85.0705 267.149 84.2938 267.476 83.3945C267.885 82.4134 268.171 81.5958 268.335 80.9417C269.97 73.4198 271.114 67.7376 271.769 63.8949C272.259 61.3603 272.995 59.1528 273.976 57.2724C275.039 55.3919 276.592 53.7159 278.636 52.2442C277.246 50.4455 276.184 47.9927 275.448 44.8859C274.712 41.6972 274.344 38.5495 274.344 35.4427V29.1881C274.344 26.3265 274.303 24.2008 274.221 22.8108C274.221 21.8297 273.894 20.5625 273.24 19.009C272.668 17.4556 272.096 16.6789 271.523 16.6789C270.787 16.8424 270.093 17.2921 269.438 18.0279C269.03 19.009 268.784 20.2354 268.703 21.7071C268.621 23.097 268.58 23.9555 268.58 24.2825C268.335 26.5718 267.108 27.5938 264.901 27.3485C264.083 27.2667 263.347 26.8579 262.693 26.1221C262.039 25.3045 261.712 24.4052 261.712 23.424C261.712 21.7071 262.244 19.9084 263.306 18.0279C264.369 16.1475 265.637 14.594 267.108 13.3677C268.662 12.1413 270.133 11.5281 271.523 11.5281C272.586 11.5281 273.69 11.896 274.835 12.6318C276.061 13.2859 277.083 14.1444 277.901 15.2072C279.454 17.4147 280.231 20.9304 280.231 25.7542C280.231 27.1441 280.149 29.229 279.985 32.0088L279.863 34.4615C279.863 37.4049 280.067 40.43 280.476 43.5368C280.966 46.5619 281.743 48.8921 282.806 50.5272C282.888 50.609 283.092 50.6499 283.419 50.6499C283.828 50.6499 284.155 50.6908 284.4 50.7725V50.1593C284.4 43.7821 284.319 35.6879 284.155 25.8768C284.155 24.8957 284.237 23.424 284.4 21.4618L284.523 17.2921C284.523 16.0657 284.482 15.1255 284.4 14.4714C284.319 14.2261 284.278 13.8991 284.278 13.4903C284.278 11.6098 285.3 10.4652 287.344 10.0564C287.998 9.89288 288.775 10.179 289.674 10.9149C290.655 11.5689 291.309 12.3865 291.636 13.3677C291.881 14.1035 292.004 14.9211 292.004 15.8204C292.004 16.3927 291.963 16.8015 291.881 17.0468C290.737 22.6065 290.164 27.839 290.164 32.7446V51.3857C291.309 51.7945 292.29 52.0807 293.108 52.2442C294.906 52.4895 295.969 51.3448 296.296 48.8103C296.542 47.7474 296.828 45.7034 297.155 42.6784C297.237 42.1878 297.277 41.7381 297.277 41.3293C297.277 40.9205 297.318 40.5117 297.4 40.1029L298.013 34.9521C298.259 32.0905 298.626 29.2698 299.117 26.49C300.098 21.5027 302.101 17.4147 305.126 14.2261C306.353 12.9997 307.824 12.3865 309.541 12.3865C310.85 12.3865 312.076 12.7545 313.221 13.4903C314.447 14.1444 315.346 15.0846 315.919 16.311C316.654 17.9462 317.145 19.6222 317.39 21.3392C317.717 22.9744 317.963 25.1001 318.126 27.7164C318.208 28.6975 317.963 29.3925 317.39 29.8013C316.818 30.1283 315.878 30.5371 314.57 31.0277C313.425 30.7006 312.526 30.0874 311.871 29.1881C311.299 28.2887 311.095 27.1441 311.258 25.7542C311.504 23.4649 310.809 21.2983 309.173 19.2543C307.865 20.399 306.884 21.6662 306.23 23.0561C305.576 24.3643 305.085 26.1221 304.758 28.3296C304.431 30.5371 304.145 32.0496 303.9 32.8672C303.246 35.9741 302.919 38.3451 302.919 39.9803C302.919 41.6155 302.674 43.6595 302.183 46.1122C301.692 48.565 301.12 50.5681 300.466 52.1215C300.221 52.6121 300.098 53.0618 300.098 53.4706C300.098 54.2064 300.425 54.9014 301.079 55.5554C302.224 56.7818 303.082 58.7849 303.655 61.5647C303.9 62.8729 304.023 64.5081 304.023 66.4703L303.9 71.2532C303.736 73.706 303.655 75.5456 303.655 76.772C303.655 78.2436 303.941 79.6335 304.513 80.9417C305.167 82.1681 306.107 83.6806 307.334 85.4793C307.661 85.9699 308.151 86.2152 308.806 86.2152C309.705 86.2152 310.482 85.7655 311.136 84.8661C312.035 82.8222 312.607 81.1052 312.853 79.7153C313.098 78.3254 313.261 77.426 313.343 77.0172C313.588 74.9733 314.57 73.9513 316.286 73.9513C316.859 73.9513 317.308 73.9922 317.636 74.0739L319.23 74.6871C319.557 75.9135 319.72 77.2625 319.72 78.7342C319.72 82.4134 318.371 86.2152 315.673 90.1396C315.019 91.1207 314.079 91.8974 312.853 92.4697C311.708 93.0421 310.4 93.3282 308.928 93.3282C307.375 93.3282 306.026 93.0012 304.881 92.3471C303.736 91.6113 302.837 90.671 302.183 89.5264C301.12 87.4007 300.303 85.4385 299.73 83.6397C299.158 81.841 298.872 79.9606 298.872 77.9984C298.872 75.5456 298.79 72.8475 298.626 69.9042C298.463 66.9609 298.34 64.9169 298.259 63.7722L298.013 60.461C298.013 59.1528 297.523 58.2535 296.542 57.7629C295.642 57.1906 294.539 56.7818 293.23 56.5365C291.922 56.2095 290.9 55.9642 290.164 55.8007C290.001 58.5805 289.919 60.6245 289.919 61.9327C289.919 63.4861 289.837 65.7345 289.674 68.6778C289.51 73.0928 289.469 76.3632 289.551 78.4889C289.633 79.5518 289.796 80.7373 290.042 82.0454C290.287 83.3536 290.451 84.2529 290.532 84.7435C290.859 85.8881 291.064 86.7466 291.146 87.3189C291.309 87.973 291.391 88.5044 291.391 88.9132C291.391 90.0579 291.064 90.9981 290.41 91.7339C289.756 92.388 288.775 92.7559 287.466 92.8377C286.403 92.9194 285.709 92.715 285.381 92.2245C285.054 91.6522 284.85 90.7528 284.768 89.5264L284.891 83.7624C284.891 81.3096 284.809 77.5487 284.646 72.4796C284.482 69.2092 284.4 66.7156 284.4 64.9986V55.0649C283.501 54.9831 282.765 55.1875 282.193 55.6781C281.702 56.1686 281.212 56.8227 280.721 57.6403C279.495 59.5208 278.595 61.5239 278.023 63.6496C277.451 65.7753 276.879 68.5143 276.306 71.8664L275.816 74.6871C274.835 80.5738 273.445 85.6428 271.646 89.8943C271.074 91.366 270.215 92.5106 269.071 93.3282C267.926 94.1458 266.659 94.5546 265.269 94.5546ZM334.159 92.4697C333.096 92.1427 332.524 91.4478 332.442 90.3849V88.5453C332.279 85.1114 332.115 79.9606 331.952 73.0928C331.625 67.1244 331.42 62.5459 331.339 59.3572C331.093 54.3699 330.807 46.889 330.48 36.9143C330.398 35.1974 330.317 32.8264 330.235 29.8013C330.153 26.7762 330.112 24.4869 330.112 22.9335C330.03 22.0341 329.989 20.7669 329.989 19.1317C329.989 17.2512 330.071 15.8613 330.235 14.962C330.562 12.4274 331.952 11.2419 334.404 11.4054C336.694 11.4054 337.92 12.7136 338.084 15.3299V16.8015L337.961 47.7065V62.3006V69.6589C337.961 70.8035 338.043 72.1526 338.206 73.706C338.37 75.1777 338.492 76.2405 338.574 76.8946C338.983 74.5236 339.637 72.1117 340.536 69.6589C341.518 67.1244 342.131 65.5709 342.376 64.9986C343.602 62.0553 344.502 59.6434 345.074 57.7629C347.036 51.4675 349.571 43.7412 352.678 34.5842C353.332 32.7037 354.068 30.4145 354.885 27.7164C357.093 20.7669 358.605 16.2701 359.423 14.2261C360.159 12.2639 361.262 11.0375 362.734 10.547C363.47 10.3017 364.206 10.179 364.942 10.179C366.086 10.179 367.272 10.547 368.498 11.2828V17.1695C368.498 23.3014 368.621 29.6378 368.866 36.1785C368.948 37.5684 368.989 39.6533 368.989 42.4331V45.9896C368.989 46.7254 368.948 47.7065 368.866 48.9329C368.866 50.1593 368.907 51.5901 368.989 53.2253L369.357 86.3378C369.357 87.5642 369.07 88.9132 368.498 90.3849C368.253 91.039 367.844 91.5704 367.272 91.9792C366.699 92.3062 366.086 92.4697 365.432 92.4697C363.143 92.4697 361.998 91.4069 361.998 89.2811C361.998 86.8284 362.121 84.4573 362.366 82.1681C362.53 79.0612 362.611 76.6902 362.611 75.055C362.448 58.8667 362.244 46.7663 361.998 38.7539C361.998 37.5275 361.835 35.5244 361.508 32.7446L361.14 28.3296C360.404 29.1472 359.995 29.6786 359.913 29.9239L357.951 35.9332C356.643 40.1847 355.621 43.3324 354.885 45.3764L344.216 75.055L338.697 90.1396C338.043 91.8566 337.062 92.715 335.754 92.715C335.508 92.715 334.977 92.6333 334.159 92.4697ZM390.997 90.7528L390.874 85.9699C390.792 84.58 390.751 83.0266 390.751 81.3096L390.874 77.1399C390.629 76.2405 390.015 67.2879 389.034 50.282C388.053 33.276 387.481 22.3612 387.317 17.5374C382.575 17.3739 379.55 16.8833 378.242 16.0657C377.343 15.4116 376.893 14.6758 376.893 13.8582C376.893 13.2041 377.302 12.6318 378.119 12.1413C379.019 11.569 379.918 11.2828 380.818 11.2828C383.107 11.2828 385.887 11.4463 389.157 11.7733C392.264 12.1821 395.044 12.3865 397.496 12.3865H398.478H399.459C401.993 12.3865 403.26 13.3677 403.26 15.3299C403.26 16.311 402.852 17.1286 402.034 17.7827C401.216 18.355 400.276 18.6411 399.213 18.6411C398.478 18.6411 397.415 18.5185 396.025 18.2732L393.572 17.7827L393.449 18.3959L393.327 19.009C393.327 26.2856 394.022 37.8954 395.412 53.8385C396.72 68.8004 397.374 80.4103 397.374 88.6679C397.374 89.6491 396.924 90.5075 396.025 91.2434C395.207 91.9792 394.267 92.3471 393.204 92.3471L390.997 90.7528ZM418.083 92.2245C416.447 92.1427 415.507 91.2842 415.262 89.6491L415.63 58.9893V49.5461V31.3956C415.63 23.3832 415.671 17.3739 415.752 13.3677C415.752 12.8771 415.998 12.4274 416.488 12.0186C417.061 11.6098 417.755 11.4054 418.573 11.4054C419.227 11.4054 419.881 11.6098 420.535 12.0186C421.189 12.4274 421.68 12.9589 422.007 13.6129C422.743 14.9211 423.111 16.8424 423.111 19.377C423.111 21.1757 422.825 23.9964 422.252 27.839C422.007 29.556 421.843 31.4365 421.762 33.4804C421.68 35.5244 421.639 36.8734 421.639 37.5275C421.476 38.6721 421.271 40.5117 421.026 43.0463C420.862 45.5808 420.862 46.8072 421.026 46.7254C422.252 46.5619 423.765 46.8481 425.563 47.5839C426.953 48.0745 427.771 48.3197 428.016 48.3197C431.614 48.9738 434.353 51.1404 436.233 54.8196C438.195 58.417 439.34 62.1371 439.667 65.9797C439.749 66.8791 439.79 68.1872 439.79 69.9042C439.79 73.9922 439.422 77.5078 438.686 80.4511C437.868 86.1743 434.434 90.0987 428.384 92.2245C427.403 92.5515 426.136 92.715 424.582 92.715C423.438 92.715 422.17 92.6741 420.781 92.5924C419.472 92.4289 418.573 92.3062 418.083 92.2245ZM422.13 87.3189C423.029 87.5642 423.847 87.6868 424.582 87.6868C426.218 87.6868 427.607 87.2372 428.752 86.3378C429.897 85.3567 430.633 84.0894 430.96 82.536C431.368 80.6555 431.818 77.8348 432.309 74.0739C432.472 72.2752 432.636 70.8444 432.799 69.7816C432.881 69.291 432.922 68.5552 432.922 67.5741C432.922 64.1402 432.268 60.9924 430.96 58.1309C429.651 55.1875 427.771 53.5523 425.318 53.2253C423.601 52.8983 422.334 52.6939 421.516 52.6121L422.13 87.3189Z" fill="white"/>
</svg>
