<svg width="215" height="102" viewBox="0 0 215 102" fill="none" xmlns="http://www.w3.org/2000/svg">
<g filter="url(#filter0_n_2556_1530)">
<path d="M4.78243 101.177C1.75734 101.177 0.244793 100.605 0.244793 99.4602C0.244793 96.0263 0.367432 90.8346 0.612709 83.885L0.857988 68.4325C0.857988 62.7094 0.735349 54.1655 0.490071 42.801C0.163034 32.7446 -0.000484463 24.2416 -0.000484463 17.2921C-0.000484463 11.4054 1.06239 8.4621 3.18813 8.4621C8.666 8.4621 12.8766 10.2199 15.8199 13.7356C18.845 17.2512 20.3576 21.9115 20.3576 27.7164C20.3576 34.2572 17.7413 41.0432 12.5087 48.0745C16.8419 52.4077 19.867 56.5366 21.584 60.461C23.3827 64.3854 24.282 69.0866 24.282 74.5645C24.282 77.9166 24.1594 80.6147 23.9141 82.6586C23.7506 84.6209 23.3827 86.4604 22.8104 88.1774C22.238 89.9761 21.4204 91.5295 20.3576 92.8377C19.3765 94.1458 18.0274 95.3722 16.3105 96.5168C14.6753 97.6615 12.5496 98.8061 9.93327 99.9507C8.95216 100.196 8.13456 100.4 7.48049 100.564C6.41762 100.973 5.60003 101.177 5.02771 101.177H4.78243ZM4.65979 47.4613C6.4585 47.4613 8.17544 46.6846 9.81063 45.1311C11.4458 43.5777 12.7948 41.5337 13.8577 38.9992C14.9206 36.6282 15.7382 34.1754 16.3105 31.6409C16.8828 29.0246 17.169 26.6535 17.169 24.5278C17.169 21.6662 16.1061 18.9682 13.9804 16.4336C11.9364 13.8991 9.60623 12.6318 6.98993 12.6318C4.86419 12.6318 3.80132 14.3897 3.80132 17.9053C3.80132 23.3832 3.88308 28.2887 4.0466 32.622L4.29188 47.3386L4.65979 47.4613ZM5.6409 96.3942C8.42072 96.3942 10.9553 95.5766 13.2445 93.9414C15.6155 92.2245 17.4551 89.9761 18.7633 87.1963C20.1532 84.4165 20.8481 81.4323 20.8481 78.2436C20.8481 63.6087 17.3325 54.8196 10.3012 51.8763C9.64711 51.8763 8.58424 52.0807 7.11257 52.4895C5.72266 52.98 4.78243 53.2253 4.29188 53.2253C4.70067 66.5521 4.90507 80.9008 4.90507 96.2716H5.27299L5.6409 96.3942ZM66.8703 73.9513C67.3608 83.7624 67.7696 91.1207 68.0967 96.0263C68.0967 96.8439 67.8923 97.6615 67.4835 98.4791C67.1565 99.2149 66.5433 99.5828 65.6439 99.5828C64.1722 99.5828 63.4364 98.8061 63.4364 97.2527C63.5999 91.5295 63.6817 87.2372 63.6817 84.3756C63.6817 81.0235 63.5182 75.8317 63.1911 68.8004L62.7006 62.1779L62.3327 32.254C62.2509 31.3547 62.2509 30.2918 62.3327 29.0654C62.4144 27.8391 62.4553 26.8579 62.4553 26.1221C62.4553 24.5687 62.2918 22.9744 61.9647 21.3392C61.883 21.0939 61.8421 20.8078 61.8421 20.4807C61.8421 19.2543 62.5779 18.7638 64.0496 19.009C65.7665 19.2543 66.7068 20.3172 66.8703 22.1977C66.9521 23.097 66.9929 24.5278 66.9929 26.49C66.9929 28.3705 66.9521 29.8013 66.8703 30.7824L66.0118 55.3102L66.8703 73.9513ZM47.7386 51.8763C49.7008 52.0398 51.6631 53.1435 53.6253 55.1875C55.5875 57.2315 56.6913 59.3573 56.9365 61.5648C57.2636 64.3446 57.5497 69.7816 57.795 77.8757C57.795 80.4103 57.5089 83.231 56.9365 86.3378C56.446 89.4447 55.7102 92.1018 54.729 94.3093C53.5844 97.0074 50.3958 98.9287 45.1632 100.073C44.3456 100.319 43.6098 100.441 42.9557 100.441C40.5029 100.441 39.2765 98.8879 39.2765 95.781V90.7528L39.3992 68.6778C39.3992 66.7156 39.3174 63.854 39.1539 60.0931L39.0313 55.8007C39.0313 54.4926 39.113 51.8763 39.2765 47.9518C39.4401 42.3922 39.5218 37.364 39.5218 32.8672C39.5218 31.6409 39.4809 29.883 39.3992 27.5938C39.3174 25.2228 39.1948 23.6284 39.0313 22.8109C38.9495 22.6473 38.9086 22.3612 38.9086 21.9524C38.9086 20.9713 39.3992 20.3172 40.3803 19.9902C40.8708 19.8266 41.2388 19.7449 41.484 19.7449C42.2199 19.7449 42.7922 20.1128 43.201 20.8486C43.6915 21.5845 43.9368 22.5656 43.9368 23.792C43.9368 34.666 43.7733 42.3922 43.4463 46.9707L43.201 49.6688C42.9557 50.8952 42.8331 51.8354 42.8331 52.4895C43.4871 52.4077 44.2639 52.2851 45.1632 52.1216C46.1443 51.8763 47.0028 51.7945 47.7386 51.8763ZM53.2574 87.4416C53.9114 83.6806 54.2385 79.47 54.2385 74.8098C54.2385 69.6589 53.7888 65.5301 52.8895 62.4232C52.3989 60.7063 51.4995 59.1937 50.1914 57.8856C48.8833 56.5774 47.3298 55.9234 45.5311 55.9234C44.7953 55.9234 44.0595 56.046 43.3236 56.2913V75.9135V86.0925C43.3236 88.2183 43.3645 90.017 43.4463 91.4886C43.6098 92.8786 43.9368 94.2685 44.4274 95.6584C49.5782 94.432 52.5215 91.693 53.2574 87.4416ZM90.5425 100.441C89.4796 100.441 88.7438 100.237 88.335 99.8281C87.9262 99.3375 87.7218 98.5608 87.7218 97.498C86.9859 58.5805 86.291 36.0559 85.6369 29.9239C85.3916 28.3705 85.1055 26.0403 84.7784 22.9335C84.6967 21.8706 84.9011 21.053 85.3916 20.4807C85.964 19.8266 86.6998 19.4996 87.5991 19.4996C89.1526 19.4996 89.9293 20.5625 89.9293 22.6882C89.8475 25.5498 90.011 33.1943 90.4198 45.6217C90.5833 50.2002 90.6651 54.4926 90.6651 58.4988C90.6651 63.9767 90.7877 70.8444 91.033 79.1021L91.8915 90.8754L92.8726 89.6491C95.1619 83.6806 98.0234 75.9135 101.457 66.3477C104.891 56.7818 106.935 50.9769 107.589 48.9329L109.184 45.0085C110.492 41.7381 111.555 38.8357 112.372 36.3011C112.863 34.8295 113.517 32.4585 114.334 29.1881C114.988 26.8171 115.643 24.6504 116.297 22.6882C116.951 20.6442 117.523 19.4178 118.014 19.009C118.341 18.7638 118.79 18.6003 119.363 18.5185C119.935 18.355 120.425 18.3141 120.834 18.3959C121.08 18.4776 121.325 18.7638 121.57 19.2543C121.815 19.6631 121.938 20.0719 121.938 20.4807C122.02 21.8706 122.02 23.424 121.938 25.141C121.938 26.7762 121.938 28.2887 121.938 29.6786V34.8295C121.938 38.0181 122.102 42.801 122.429 49.1782C122.592 51.2222 122.756 54.3699 122.919 58.6214C123.001 60.0931 123.042 62.2597 123.042 65.1213C123.042 69.5363 123.001 72.8067 122.919 74.9324L122.797 84.8661C122.797 88.7906 122.919 92.715 123.164 96.6395V96.8848C123.164 97.4571 122.878 97.9885 122.306 98.4791C121.815 98.8879 121.202 99.1331 120.466 99.2149C119.731 99.2149 119.076 99.0105 118.504 98.6017C118.014 98.1111 117.809 97.5388 117.891 96.8848L118.259 87.8095L118.995 68.8004V65.1213C118.831 58.8258 118.709 51.5492 118.627 43.2916C118.545 34.9521 118.545 30.7006 118.627 30.5371L117.768 30.4145L109.306 53.8385C101.948 74.6054 96.1839 90.0987 92.0141 100.319L90.5425 100.441ZM106.731 9.56585C105.504 10.547 104.237 11.0375 102.929 11.0375C101.212 11.0375 99.536 10.2199 97.9008 8.58475C97.492 8.09419 97.0832 7.60363 96.6744 7.11308C96.2656 6.54076 96.0612 5.96845 96.0612 5.39613C96.0612 4.98734 96.1839 4.53766 96.4291 4.04711C97.5738 3.72007 98.2278 3.55655 98.3914 3.55655C98.8819 3.55655 99.536 4.08799 100.354 5.15086C101.335 6.459 102.071 7.11308 102.561 7.11308C102.97 7.11308 103.747 6.6634 104.891 5.76405C105.954 4.8647 106.772 4.00622 107.344 3.18863C107.916 2.37104 108.162 1.30817 108.08 1.64482e-05C110.614 0.572334 111.882 1.63521 111.882 3.18863C111.882 4.08798 111.473 4.94645 110.655 5.76405C109.265 7.31748 107.957 8.58474 106.731 9.56585ZM148.455 98.7243L148.332 94.1867C148.25 92.8786 148.21 91.4069 148.21 89.7717C148.21 88.9541 148.25 88.2592 148.332 87.6868L148.455 85.4793C148.455 84.6617 148.291 83.6806 147.964 82.536C147.964 77.0581 147.556 66.8791 146.738 51.9989C145.92 37.6093 145.471 27.8391 145.389 22.6882C140.32 22.6882 136.927 22.5656 135.21 22.3203C133.575 21.9115 132.757 21.2574 132.757 20.3581C133.166 19.4587 133.943 19.009 135.087 19.009C137.54 19.009 141.097 19.1726 145.757 19.4996C150.008 19.9084 153.565 20.1128 156.426 20.1128H159.002L161.577 19.9902C163.049 19.9902 163.785 20.5216 163.785 21.5845C163.785 22.075 163.499 22.4838 162.926 22.8109C162.436 23.0561 161.823 23.1788 161.087 23.1788C159.451 23.1788 157.735 23.097 155.936 22.9335L150.662 22.6882C150.335 22.6882 150.172 22.8109 150.172 23.0561C150.09 23.3014 150.049 24.0781 150.049 25.3863C150.049 33.3169 150.54 45.3355 151.521 61.4421C152.42 78.121 152.87 90.0987 152.87 97.3753C152.87 97.9476 152.502 98.4791 151.766 98.9696C151.112 99.4602 150.458 99.7055 149.804 99.7055L148.455 98.7243ZM182.043 100.441C180.98 100.441 180.244 100.237 179.835 99.8281C179.426 99.3375 179.222 98.5608 179.222 97.498C178.486 58.5805 177.791 36.0559 177.137 29.9239C176.892 28.3705 176.606 26.0403 176.279 22.9335C176.197 21.8706 176.401 21.053 176.892 20.4807C177.464 19.8266 178.2 19.4996 179.099 19.4996C180.653 19.4996 181.429 20.5625 181.429 22.6882C181.348 25.5498 181.511 33.1943 181.92 45.6217C182.083 50.2002 182.165 54.4926 182.165 58.4988C182.165 63.9767 182.288 70.8444 182.533 79.1021L183.392 90.8754L184.373 89.6491C186.662 83.6806 189.524 75.9135 192.957 66.3477C196.391 56.7818 198.435 50.9769 199.089 48.9329L200.684 45.0085C201.992 41.7381 203.055 38.8357 203.872 36.3011C204.363 34.8295 205.017 32.4585 205.835 29.1881C206.489 26.8171 207.143 24.6504 207.797 22.6882C208.451 20.6442 209.023 19.4178 209.514 19.009C209.841 18.7638 210.29 18.6003 210.863 18.5185C211.435 18.355 211.926 18.3141 212.334 18.3959C212.58 18.4776 212.825 18.7638 213.07 19.2543C213.316 19.6631 213.438 20.0719 213.438 20.4807C213.52 21.8706 213.52 23.424 213.438 25.141C213.438 26.7762 213.438 28.2887 213.438 29.6786V34.8295C213.438 38.0181 213.602 42.801 213.929 49.1782C214.092 51.2222 214.256 54.3699 214.419 58.6214C214.501 60.0931 214.542 62.2597 214.542 65.1213C214.542 69.5363 214.501 72.8067 214.419 74.9324L214.297 84.8661C214.297 88.7906 214.419 92.715 214.665 96.6395V96.8848C214.665 97.4571 214.378 97.9885 213.806 98.4791C213.316 98.8879 212.702 99.1331 211.966 99.2149C211.231 99.2149 210.577 99.0105 210.004 98.6017C209.514 98.1111 209.309 97.5388 209.391 96.8848L209.759 87.8095L210.495 68.8004V65.1213C210.331 58.8258 210.209 51.5492 210.127 43.2916C210.045 34.9521 210.045 30.7006 210.127 30.5371L209.268 30.4145L200.806 53.8385C193.448 74.6054 187.684 90.0987 183.514 100.319L182.043 100.441Z" fill="black"/>
</g>
<defs>
<filter id="filter0_n_2556_1530" x="0" y="0" width="214.664" height="101.177" filterUnits="userSpaceOnUse" color-interpolation-filters="sRGB">
<feFlood flood-opacity="0" result="BackgroundImageFix"/>
<feBlend mode="normal" in="SourceGraphic" in2="BackgroundImageFix" result="shape"/>
<feTurbulence type="fractalNoise" baseFrequency="0.035587187856435776 0.035587187856435776" stitchTiles="stitch" numOctaves="3" result="noise" seed="6329" />
<feColorMatrix in="noise" type="luminanceToAlpha" result="alphaNoise" />
<feComponentTransfer in="alphaNoise" result="coloredNoise1">
<feFuncA type="discrete" tableValues="0 0 0 0 0 0 0 0 0 0 0 0 0 0 0 0 0 0 0 0 0 0 0 0 1 1 0 0 0 0 0 0 0 0 0 0 0 0 0 0 0 0 0 0 0 0 0 0 0 0 0 0 0 0 0 0 0 0 0 0 0 0 0 0 0 0 0 0 0 0 0 0 0 0 0 0 0 0 0 0 0 0 0 0 0 0 0 0 0 0 0 0 0 0 0 0 0 0 0 0 "/>
</feComponentTransfer>
<feComposite operator="in" in2="shape" in="coloredNoise1" result="noise1Clipped" />
<feFlood flood-color="rgba(0, 0, 0, 0.25)" result="color1Flood" />
<feComposite operator="in" in2="noise1Clipped" in="color1Flood" result="color1" />
<feMerge result="effect1_noise_2556_1530">
<feMergeNode in="shape" />
<feMergeNode in="color1" />
</feMerge>
</filter>
</defs>
</svg>
